<svg xmlns="http://www.w3.org/2000/svg" viewBox="210 120 90 55" xmlns:v="https://vecta.io/nano">
<defs>
    <linearGradient id="A" x1="0" y1="0" x2="1" y2="1">
        <stop offset="0" stop-color="red">
            <animate attributeName="stop-color" values="#ffcc00; #ff943d; #ff6666; #e83e65; #cc0066; #ff6b39; #ffcc00;" dur="10s" repeatCount="indefinite"/>
        </stop>
        <stop offset=".5" stop-color="purple">
            <animate attributeName="stop-color" values="#ff943d; #ff6666; #e83e65; #cc0066; #ff6b39; #ffcc00; #ff943d;" dur="10s" repeatCount="indefinite"/>
        </stop>
        <stop offset="1" stop-color="#00f">
            <animate attributeName="stop-color" values="#ff6666; #e83e65; #cc0066; #ff6b39; #ffcc00; #ff943d; #ff6666;" dur="10s" repeatCount="indefinite"/>
        </stop>
        <animateTransform attributeName="gradientTransform" type="rotate" from="0 .5 .5" to="360 .5 .5" dur="10s" repeatCount="indefinite"/>
    </linearGradient>
</defs>
<a xmlns="http://www.w3.org/2000/svg" id="anchor" xlink:href="https://www.samuelmok.cc" xmlns:xlink="http://www.w3.org/1999/xlink" target="_top">
        <rect x="210" y="120" width="100%" height="100%" fill="#f5f5f5"/>

    <g fill="url(#A)">
        <path d="M219.007 143c3.504 0 5.84-1.836 5.84-4.561 0-2.169-1.307-3.671-3.977-4.227l-2.837-.584c-1.112-.222-1.641-.667-1.641-1.557s.807-1.585 2.364-1.585c1.613 0 2.67.779 3.309 2.392l2.92-1.307c-.695-2.141-2.892-3.643-6.118-3.643-3.254 0-5.701 1.919-5.701 4.505 0 2.002 1.307 3.309 3.866 3.866l2.614.612c1.391.278 1.919 1.001 1.919 1.78 0 1.057-.862 1.752-2.336 1.752-1.975 0-2.92-.751-3.671-2.559l-3.004 1.446c.946 2.253 3.309 3.671 6.452 3.671zm6.342-10.346h3.449c.111-1.696 1.112-2.392 3.004-2.392 1.752 0 2.586.723 2.642 2.837-1.613.751-3.004.834-4.617 1.14-3.17.612-4.533 2.002-4.533 4.45s2.002 4.311 4.811 4.311c1.557 0 2.976-.389 4.199-1.836h.25c.028.612.083 1.057.222 1.502h3.226v-.278c-.723-1.919-.445-5.312-.445-9.678 0-3.198-2.614-4.783-5.812-4.783-4.144 0-6.174 1.947-6.396 4.728zm5.59 7.926c-1.752 0-2.475-.946-2.475-2.03s.667-1.863 2.531-2.253c1.557-.306 2.336-.501 3.421-1.085l.028 2.141c0 1.029-.362 1.78-1.112 2.364-.612.473-1.391.862-2.392.862zm11.709 2.086v-7.509c0-3.059 1.029-4.672 2.976-4.672 1.696 0 2.531 1.196 2.531 3.671v8.51h3.476v-7.509c0-3.059 1.029-4.672 2.976-4.672 1.696 0 2.531 1.196 2.531 3.671v8.51h3.504v-9.261c0-3.56-1.836-5.479-5.006-5.479-2.03 0-3.532 1.085-4.366 3.031-.667-2.002-2.28-3.031-4.644-3.031-1.78 0-3.17.834-4.033 2.392h-.222v-2.058h-3.198v14.406zm22.973-5.868v-8.538h-3.449v9.483c0 3.504 1.891 5.256 4.839 5.256 1.752 0 3.198-.751 4.06-2.364h.222v2.03h3.226V128.26h-3.504v7.87c0 2.976-1.085 4.283-2.92 4.283-1.502 0-2.475-.973-2.475-3.615zm9.846-1.14c0 4.561 2.586 7.342 6.925 7.342 3.198 0 5.395-1.585 6.424-4.617l-3.031-.667c-.723 1.947-1.696 2.698-3.282 2.698-2.086 0-3.476-1.335-3.699-4.338h9.928v-.556c-.139-4.811-2.392-7.592-6.424-7.592-4.116 0-6.841 3.17-6.841 7.731zm6.591-5.145c1.752 0 2.837 1.085 3.226 3.309h-6.563c.389-2.086 1.641-3.309 3.337-3.309zm7.593 12.153h3.504v-19.634h-3.504z"/>
        <path d="M215.49 164v-7.509c0-3.059 1.029-4.672 2.976-4.672 1.696 0 2.531 1.196 2.531 3.671V164h3.476v-7.509c0-3.059 1.029-4.672 2.976-4.672 1.696 0 2.531 1.196 2.531 3.671V164h3.504v-9.261c0-3.56-1.836-5.479-5.006-5.479-2.03 0-3.532 1.085-4.366 3.031-.667-2.002-2.28-3.031-4.644-3.031-1.78 0-3.17.834-4.033 2.392h-.222v-2.058h-3.198V164zm19.023-7.064c0 4.617 2.531 7.398 6.758 7.398 4.45 0 7.175-2.892 7.175-7.62 0-4.644-2.614-7.453-6.925-7.453-4.366 0-7.008 2.892-7.008 7.676zm3.476-.195c0-3.226 1.168-4.895 3.365-4.895 2.364 0 3.588 1.724 3.588 5.034 0 3.198-1.196 4.867-3.504 4.867-2.28 0-3.449-1.724-3.449-5.006zM249.393 164h3.449v-4.783l1.446-1.835 3.81 6.619h3.838l-5.117-8.955 5.034-5.451h-3.81l-5.062 5.59h-.139V144.65h-3.449zm16.437-3.087h-3.754v3.393h3.754zm7.899 3.421c3.449 0 5.812-1.641 6.647-4.644l-3.421-.612c-.278 1.808-1.251 2.67-3.004 2.67-2.058 0-3.143-1.724-3.143-5.006 0-3.198 1.057-4.867 3.059-4.867 1.808 0 2.781.89 3.059 2.698l3.421-.584c-.862-3.059-3.059-4.728-6.257-4.728-4.227 0-6.758 2.92-6.758 7.731 0 4.589 2.392 7.342 6.396 7.342zm13.128 0c3.449 0 5.812-1.641 6.647-4.644l-3.421-.612c-.278 1.808-1.251 2.67-3.004 2.67-2.058 0-3.143-1.724-3.143-5.006 0-3.198 1.057-4.867 3.059-4.867 1.808 0 2.781.89 3.059 2.698l3.421-.584c-.862-3.059-3.059-4.728-6.257-4.728-4.227 0-6.758 2.92-6.758 7.731 0 4.589 2.392 7.342 6.396 7.342z"/>
    </g>

    <circle cx="280" cy="157" r="16" fill-opacity="0" stroke="#000" stroke-width="3.693" stroke-linejoin="bevel" stroke-opacity=".3"/>
    
    <path d="M242.964 155.662v2.339h-.653v2.778h-1.777v-2.778h-.653v-2.339c0-.102.036-.189.107-.26s.159-.107.26-.107h2.349a.36.36 0 0 1 .255.107c.075.071.112.158.112.26zm-2.339-1.471c0-.538.265-.807.797-.807s.797.269.797.807c0 .531-.266.797-.797.797s-.797-.266-.797-.797z"/>
</a>
</svg>
