<?xml version="1.0" standalone="no"?>
<!DOCTYPE svg PUBLIC "-//W3C//DTD SVG 20010904//EN"
 "http://www.w3.org/TR/2001/REC-SVG-20010904/DTD/svg10.dtd">
<svg version="1.0" xmlns="http://www.w3.org/2000/svg"
 width="355.000000pt" height="355.000000pt" viewBox="0 0 355.000000 355.000000"
 preserveAspectRatio="xMidYMid meet">
<metadata>
Created by potrace 1.14, written by Peter Selinger 2001-2017
</metadata>
<g transform="translate(0.000000,355.000000) scale(0.100000,-0.100000)"
fill="#000000" stroke="none">
<path d="M2000 3345 c-30 -7 -95 -22 -145 -33 -49 -12 -187 -44 -305 -73 -256
-61 -269 -64 -525 -123 -110 -26 -207 -49 -215 -51 -9 -3 -72 -78 -140 -167
-69 -90 -130 -170 -137 -178 -104 -133 -153 -196 -239 -310 -44 -58 -128 -167
-187 -244 -97 -125 -107 -142 -107 -180 0 -46 24 -82 63 -91 12 -3 83 8 157
26 74 17 153 35 175 40 22 4 67 15 100 23 32 9 63 16 67 16 5 0 29 -33 56 -72
l47 -73 5 -640 5 -640 32 -66 c40 -81 129 -169 210 -207 l58 -27 598 -3 598
-3 35 35 c30 30 34 40 34 86 0 46 -4 56 -34 86 l-34 34 -543 0 c-366 0 -557 4
-584 11 -52 15 -110 74 -124 126 -8 28 -10 182 -9 479 l3 438 115 28 c143 34
148 35 143 4 -6 -30 19 -78 53 -105 22 -18 41 -21 114 -21 96 0 126 13 155 70
21 40 19 62 -10 104 -14 21 -23 41 -21 45 3 4 31 13 63 20 124 28 115 20 303
261 28 36 57 73 65 83 14 16 45 17 393 17 357 0 380 1 417 20 21 11 54 23 72
26 73 14 94 98 43 174 -16 25 -30 48 -30 53 0 4 13 7 30 7 44 0 80 44 80 96 0
49 -10 58 -140 134 l-85 50 90 0 c50 0 108 -5 130 -11 51 -14 110 -73 124
-124 7 -27 11 -212 11 -564 l0 -523 34 -34 c30 -30 40 -34 86 -34 46 0 56 4
86 34 l35 35 -3 578 -3 578 -32 66 c-40 81 -129 169 -210 207 -58 27 -60 27
-313 30 -140 2 -260 8 -266 13 -6 4 -75 110 -155 233 -169 265 -164 261 -289
231z m-144 -219 c6 -15 -80 -133 -160 -221 -25 -27 -45 -53 -46 -57 0 -5 -5
-8 -11 -8 -6 0 -9 7 -5 15 8 21 -22 20 -46 -2 -10 -9 -18 -20 -18 -25 0 -5 -5
-14 -10 -21 -6 -7 -33 -42 -61 -79 -28 -38 -56 -68 -63 -68 -7 0 -35 -17 -62
-37 -57 -44 -99 -68 -135 -76 -14 -4 -42 -21 -62 -39 -39 -36 -112 -84 -102
-68 10 16 -21 12 -34 -4 -8 -9 -40 -16 -84 -20 -40 -3 -83 -7 -97 -9 -14 -3
-38 -5 -53 -6 -16 0 -26 -5 -22 -10 7 -12 -61 -32 -81 -24 -8 3 -34 0 -58 -6
-45 -11 -80 -6 -70 10 3 5 -2 12 -10 15 -17 6 -79 -39 -69 -50 8 -8 -36 -40
-59 -43 -23 -4 -23 -2 10 40 15 20 47 64 72 97 25 33 68 89 95 125 28 35 75
96 105 136 30 39 76 97 101 128 25 31 50 64 56 75 7 13 43 27 129 48 65 15
144 35 174 43 30 8 96 23 145 34 50 10 169 38 265 61 169 41 236 56 253 59 4
0 10 -5 13 -13z m289 -141 c37 -58 65 -108 63 -111 -3 -2 -75 -3 -161 -2
l-156 3 87 112 c47 62 89 110 93 108 4 -3 37 -52 74 -110z m-347 -356 c69
-103 142 -226 142 -238 0 -7 -9 -9 -24 -5 -24 6 -35 -2 -176 -136 -32 -30 -86
-80 -120 -110 -127 -112 -160 -145 -160 -157 0 -28 -60 -55 -133 -58 -41 -2
-109 -15 -157 -30 -126 -39 -130 -41 -130 -70 0 -14 -6 -25 -12 -26 -7 0 -2
-5 12 -11 18 -7 21 -12 10 -15 -8 -2 -22 -7 -30 -10 -30 -11 -100 -14 -100 -4
0 5 15 11 33 13 35 3 43 24 15 42 -13 8 -22 6 -40 -11 l-24 -22 -82 125 c-46
69 -82 133 -80 142 3 16 85 40 373 107 247 57 236 52 280 113 22 30 45 60 50
66 6 6 30 38 55 71 177 235 229 297 244 292 6 -2 30 -32 54 -68z m584 -16 c9
-12 19 -62 27 -143 7 -69 15 -135 18 -147 l5 -23 -171 0 c-94 0 -171 3 -171 8
0 4 9 18 20 32 29 37 25 60 -28 141 -26 41 -58 91 -71 112 l-23 37 190 0 c168
0 191 -2 204 -17z m-2042 -485 c0 -5 -9 -8 -20 -8 -22 0 -28 26 -7 33 12 4 27
-10 27 -25z m1290 -137 c0 -15 -67 -94 -92 -107 -12 -7 -37 -13 -55 -14 l-31
0 30 30 c16 17 33 30 37 30 4 0 16 9 26 20 10 11 24 20 30 20 7 0 18 7 25 15
14 16 30 20 30 6z m-782 -1534 c15 -15 35 -27 43 -27 8 0 19 -4 25 -9 5 -5 28
-11 50 -15 31 -4 45 -2 54 9 7 8 22 15 34 15 15 0 17 -3 8 -9 -23 -14 31 -22
95 -14 l58 8 -45 6 -45 6 51 1 c43 2 56 -2 75 -22 21 -22 25 -23 70 -11 38 10
52 10 65 1 20 -15 14 -51 -8 -50 -109 8 -349 12 -333 4 19 -8 19 -9 -3 -9 -13
-1 -38 10 -55 23 -18 14 -54 30 -82 37 -27 6 -55 16 -62 21 -7 6 -13 4 -16 -4
-5 -17 -46 30 -47 54 0 25 34 18 68 -15z m780 -59 c3 -15 -4 -18 -32 -18 -38
0 -44 8 -24 28 17 17 52 11 56 -10z"/>
<path d="M1743 1685 c-83 -36 -81 -166 2 -201 50 -21 900 -21 950 0 85 36 85
166 0 202 -50 20 -904 20 -952 -1z"/>
<path d="M2559 1326 c-226 -65 -381 -303 -340 -523 28 -152 124 -279 263 -348
69 -34 88 -38 170 -42 92 -4 144 4 225 38 l32 13 93 -91 c106 -103 135 -116
196 -86 47 23 77 79 67 125 -5 23 -36 62 -97 125 l-90 91 26 55 c107 226 7
497 -227 612 -71 35 -85 38 -175 41 -60 2 -114 -2 -143 -10z m231 -246 c161
-82 159 -328 -3 -412 -58 -30 -156 -30 -214 0 -188 98 -155 380 52 433 43 11
122 1 165 -21z"/>
<path d="M1740 1052 c-22 -10 -42 -32 -54 -56 -17 -36 -18 -43 -5 -79 24 -69
53 -82 179 -82 126 0 155 13 179 82 13 36 12 43 -5 79 -27 56 -69 74 -174 74
-61 0 -95 -5 -120 -18z"/>
<path d="M1214 1026 c-28 -28 -34 -42 -34 -76 0 -34 6 -48 34 -76 34 -34 35
-34 126 -34 91 0 92 0 126 34 28 28 34 42 34 76 0 34 -6 48 -34 76 -34 34 -35
34 -126 34 -91 0 -92 0 -126 -34z"/>
</g>
</svg>
