<?xml version="1.0" standalone="no"?>
<!DOCTYPE svg PUBLIC "-//W3C//DTD SVG 20010904//EN"
 "http://www.w3.org/TR/2001/REC-SVG-20010904/DTD/svg10.dtd">
<svg version="1.0" xmlns="http://www.w3.org/2000/svg"
 width="1024.000000pt" height="1024.000000pt" viewBox="0 0 1024.000000 1024.000000"
 preserveAspectRatio="xMidYMid meet">
<metadata>
Created by potrace 1.14, written by Peter Selinger 2001-2017
</metadata>
<g transform="translate(0.000000,1024.000000) scale(0.100000,-0.100000)"
fill="#000000" stroke="none">
<path d="M3384 8735 c-54 -37 -55 -125 -3 -169 50 -43 131 -28 157 29 36 78
-9 155 -90 155 -24 0 -53 -7 -64 -15z"/>
<path d="M3970 8190 c0 -509 1 -551 17 -557 9 -4 91 -7 182 -7 180 -1 228 8
315 59 127 74 185 225 165 427 -18 182 -126 301 -289 315 -111 10 -197 -39
-215 -125 -16 -78 -25 -6 -25 209 l0 229 -75 0 -75 0 0 -550z m442 83 c17 -10
42 -40 57 -68 24 -46 26 -60 26 -170 0 -105 -3 -125 -22 -162 -49 -91 -131
-127 -273 -121 l-75 3 -3 169 c-4 251 21 324 124 362 48 18 124 12 166 -13z"/>
<path d="M2200 8160 l0 -520 345 0 345 0 0 65 0 65 -270 0 c-209 0 -270 3
-270 13 0 6 -1 210 -3 452 l-2 440 -72 3 -73 3 0 -521z"/>
<path d="M7440 8610 l0 -69 153 -3 152 -3 3 -447 2 -448 70 0 70 0 0 450 0
450 155 0 155 0 0 70 0 70 -380 0 -380 0 0 -70z"/>
<path d="M5290 8424 c-91 -33 -131 -74 -145 -144 -18 -96 -27 -89 -45 34 l-14
96 -135 0 -136 0 3 -65 4 -65 69 0 69 0 -2 -257 -3 -258 -83 0 -82 0 0 -62 0
-63 260 0 261 0 -3 61 -3 61 -90 2 -90 1 0 175 c0 194 10 241 67 305 36 41
122 66 163 47 34 -16 65 -69 65 -114 l0 -36 76 -4 c47 -2 78 1 81 7 7 21 -27
168 -48 201 -28 46 -89 76 -164 80 -33 2 -67 1 -75 -2z"/>
<path d="M5796 8422 c-3 -5 -8 -34 -12 -64 l-6 -55 47 -6 c26 -4 74 -7 106 -7
166 0 249 -54 249 -163 l0 -43 -76 9 c-163 20 -320 -26 -379 -111 -28 -41 -30
-50 -30 -136 0 -82 3 -97 25 -130 16 -23 46 -47 80 -64 47 -23 68 -27 140 -27
73 0 93 4 143 28 61 31 86 58 96 109 4 17 12 33 19 36 9 3 12 -19 12 -82 l0
-86 103 0 c147 0 147 0 147 71 0 64 1 63 -95 71 l-30 3 -5 210 c-5 186 -8 215
-26 255 -42 89 -114 140 -231 164 -92 19 -269 31 -277 18z m375 -458 c5 -3 9
-24 9 -48 0 -80 -66 -145 -167 -166 -105 -22 -183 23 -183 106 0 90 76 128
239 119 52 -3 98 -8 102 -11z"/>
<path d="M6821 8408 c-85 -29 -158 -99 -191 -183 -35 -90 -40 -261 -10 -354
23 -74 79 -147 139 -185 91 -57 227 -77 383 -56 l94 12 -8 65 c-4 36 -9 67
-10 69 -2 1 -23 -2 -48 -6 -61 -12 -195 -12 -248 0 -81 19 -154 89 -168 160
l-6 30 262 0 263 0 -5 123 c-4 107 -8 128 -31 174 -56 110 -143 161 -282 169
-53 3 -86 -2 -134 -18z m236 -144 c36 -27 70 -88 79 -142 l7 -42 -202 0 -201
0 6 28 c19 89 47 131 106 161 57 29 163 26 205 -5z"/>
<path d="M3130 8345 l0 -65 125 0 125 0 -2 -257 -3 -258 -147 -3 -148 -3 0
-59 0 -60 345 0 345 0 0 60 0 59 -117 3 -118 3 -3 323 -2 322 -200 0 -200 0 0
-65z"/>
<path d="M5097 7533 l-267 -3 -30 -41 c-16 -22 -34 -56 -40 -75 -11 -32 -14
-34 -55 -34 -160 0 -607 -114 -816 -208 -69 -31 -317 -127 -388 -151 -35 -11
-109 -26 -166 -32 -202 -24 -330 21 -456 161 -83 92 -111 110 -167 110 -71 0
-164 -78 -178 -148 -13 -66 41 -144 120 -173 20 -7 36 -19 36 -27 0 -33 -102
-363 -158 -509 l-35 -93 -116 -1 c-154 -1 -206 -19 -302 -107 -59 -54 -66 -75
-31 -103 126 -98 196 -138 244 -139 59 0 67 -13 48 -81 l-10 -37 -238 -3 -237
-4 -46 -27 c-55 -33 -99 -81 -99 -110 0 -27 55 -79 117 -109 44 -22 63 -24
236 -29 l187 -5 26 80 c54 164 87 247 93 237 3 -6 7 6 8 26 0 20 26 109 57
197 70 198 78 217 83 212 2 -2 -24 -82 -57 -178 -33 -95 -60 -175 -60 -176 0
-2 148 -3 329 -3 286 0 332 -2 345 -16 21 -21 20 -57 -3 -78 -16 -15 -52 -16
-364 -14 l-345 3 -62 -190 c-34 -105 -64 -209 -67 -232 -6 -48 9 -63 38 -37
20 18 27 6 7 -14 -17 -17 -58 -15 -64 3 -4 9 -2 33 4 55 l10 40 -184 0 c-159
0 -192 -3 -241 -20 -141 -49 -185 -184 -88 -269 49 -42 90 -51 252 -51 124 0
143 2 152 17 9 17 10 17 29 0 18 -17 73 -17 938 -15 l920 3 49 26 c113 58 128
174 33 254 -17 15 -43 32 -57 38 -17 8 -152 14 -406 17 l-379 5 -6 25 c-13 51
-20 50 321 50 l319 0 0 93 c0 50 -3 116 -6 145 l-7 52 -379 0 -378 0 6 38 c5
31 1 44 -26 80 -30 42 -31 45 -15 68 9 14 36 34 60 44 47 20 70 50 60 80 -9
29 -95 102 -158 134 -35 17 -76 29 -105 31 -42 1 -47 4 -50 26 -5 43 -25 113
-43 149 -30 61 -125 140 -167 140 -18 0 -23 4 -18 16 15 39 76 248 76 260 0 7
13 20 29 28 27 14 30 14 51 -9 34 -36 185 -110 263 -129 105 -26 262 -22 404
10 123 27 159 40 388 137 77 32 176 74 221 93 175 73 400 128 567 138 l89 5
38 -83 c31 -67 44 -85 69 -96 17 -7 39 -25 48 -40 15 -27 89 -70 118 -70 12 0
15 -19 15 -107 0 -256 -43 -1011 -80 -1421 -10 -119 -28 -329 -39 -467 -22
-269 -28 -336 -37 -403 -5 -32 -1 -53 12 -77 16 -31 16 -36 1 -91 -13 -46 -15
-84 -10 -170 7 -131 1 -146 -61 -164 -54 -15 -78 -38 -110 -111 -35 -79 -66
-111 -159 -165 -45 -26 -98 -57 -118 -70 -31 -21 -47 -24 -130 -24 -56 0 -116
-6 -146 -15 -166 -49 -273 -222 -199 -319 30 -40 33 -55 9 -58 -36 -3 -54 2
-93 28 -36 24 -49 27 -133 27 -125 -1 -167 -14 -211 -65 -20 -23 -36 -50 -36
-60 0 -17 60 -18 1615 -18 l1615 0 0 26 c0 35 -55 89 -105 103 -22 6 -83 11
-135 11 -75 0 -102 -4 -130 -19 -83 -46 -80 -45 -92 -33 -10 10 -8 20 6 46 38
71 11 168 -69 251 -72 74 -111 88 -260 95 -142 6 -162 13 -275 90 -69 48 -116
97 -124 132 -10 43 -66 99 -123 125 -33 14 -54 29 -55 40 -1 10 -2 88 -2 174
-1 113 -5 161 -15 172 -10 13 -10 23 0 51 10 28 8 81 -10 303 -12 147 -26 342
-31 433 -6 91 -14 219 -20 285 -20 242 -40 599 -55 960 -8 204 -17 400 -20
436 l-6 66 52 18 c61 19 126 61 161 104 21 24 51 89 71 152 5 14 17 16 74 12
225 -14 483 -87 743 -208 285 -134 472 -185 672 -185 65 0 140 7 176 15 79 19
195 72 246 114 45 36 49 37 70 15 23 -22 20 -54 -8 -83 -16 -17 -30 -50 -40
-96 -8 -38 -35 -119 -60 -180 l-45 -110 -286 -5 -287 -5 -28 -32 c-79 -88 -57
-257 40 -305 30 -15 65 -18 237 -18 l202 0 -5 -37 c-3 -21 -8 -44 -10 -51 -3
-11 -59 -13 -282 -11 -289 2 -310 0 -332 -41 -27 -50 -3 -112 54 -139 39 -19
68 -20 581 -22 369 -1 548 2 567 9 60 25 86 90 57 144 -23 42 -62 48 -339 48
-200 0 -262 3 -265 13 -2 6 -1 28 3 47 l8 35 298 0 297 0 -6 33 c-7 39 6 41
50 8 23 -18 52 -68 111 -193 43 -92 127 -266 187 -386 59 -120 107 -222 107
-227 0 -6 -327 -10 -899 -10 -613 0 -909 -3 -928 -11 -93 -35 -100 -139 -13
-184 25 -13 157 -15 988 -15 l959 0 21 -23 c12 -13 22 -31 22 -40 0 -16 -74
-17 -1090 -17 l-1091 0 -47 -24 c-71 -36 -172 -115 -172 -135 0 -19 30 -51 47
-51 6 0 26 -16 45 -36 18 -20 52 -45 76 -55 42 -18 87 -19 1232 -19 l1188 0
26 -31 c14 -17 26 -41 26 -55 l0 -24 -502 0 c-277 -1 -982 -3 -1568 -6 l-1065
-6 -3 -64 -3 -64 588 -2 c917 -4 3095 1 3100 6 3 2 6 35 6 73 l2 68 -250 0
-250 0 -32 50 c-18 27 -33 57 -33 67 0 9 -5 20 -10 23 -31 19 -92 113 -106
163 -9 32 -31 80 -49 107 -18 28 -36 61 -40 75 -4 13 -20 36 -35 51 -15 15
-38 53 -51 85 -13 32 -68 143 -121 248 -53 105 -131 269 -173 365 -90 205
-155 336 -222 447 -28 45 -72 144 -102 225 -91 252 -103 279 -128 309 -32 39
-53 38 -99 -5 -36 -34 -42 -63 -7 -33 28 24 49 28 71 12 27 -19 82 -153 127
-311 l6 -23 -180 0 c-149 0 -181 3 -181 14 0 8 18 54 41 103 57 122 79 189 79
239 0 40 4 46 48 79 50 39 115 112 138 157 26 51 16 96 -35 151 -36 40 -73 57
-121 57 -59 0 -94 -22 -139 -88 -64 -94 -171 -154 -310 -173 -167 -23 -301 10
-688 169 -213 88 -347 136 -468 166 -86 22 -315 56 -373 56 -46 0 -50 2 -56
28 -10 38 -74 132 -89 130 -6 -2 -132 -4 -280 -5z m122 -71 c91 -67 102 -190
23 -264 -71 -66 -165 -73 -243 -18 -34 25 -69 95 -69 141 0 43 37 117 70 141
53 39 166 39 219 0z m2227 -297 c3 -8 28 -31 55 -50 51 -36 56 -55 15 -55 -28
0 -96 71 -96 100 0 23 18 27 26 5z m-4727 -29 c16 -29 -1 -69 -27 -64 -21 4
-28 53 -11 74 16 20 24 18 38 -10z m45 -596 c47 -52 65 -93 73 -170 l6 -60
-39 0 c-21 0 -89 3 -150 7 l-112 6 49 140 c27 77 52 144 55 148 9 15 78 -27
118 -71z m156 -294 c6 -19 22 -42 36 -50 23 -15 34 -56 15 -56 -12 0 -81 112
-81 133 0 27 17 11 30 -27z m90 -157 c0 -24 -23 -21 -28 4 -2 10 3 17 12 17
10 0 16 -9 16 -21z m24 -50 c-3 -5 -10 -7 -15 -3 -5 3 -7 10 -3 15 3 5 10 7
15 3 5 -3 7 -10 3 -15z m19 -489 l157 0 0 -40 0 -40 -466 0 -466 0 6 32 c13
64 1 62 321 55 159 -4 361 -7 448 -7z m2240 -1619 c58 -10 72 -21 63 -55 l-6
-26 -199 0 c-229 0 -321 7 -321 25 0 21 30 39 88 51 64 14 302 17 375 5z m251
-243 c5 -15 6 -31 2 -35 -4 -5 -191 -9 -416 -11 -433 -4 -454 -2 -448 41 4 32
35 34 468 33 l385 -1 9 -27z m420 -188 c75 -28 145 -136 132 -201 -18 -89 -86
-76 -86 16 0 46 -12 69 -63 122 -25 27 -38 47 -34 57 7 19 16 20 51 6z m-1684
-11 c0 -6 -8 -23 -19 -37 -31 -45 -58 -105 -64 -145 -10 -65 -41 -85 -79 -50
-22 20 -24 92 -4 131 19 35 74 88 106 101 34 13 60 13 60 0z"/>
<path d="M7817 6443 c-22 -21 30 -133 89 -193 l24 -25 0 48 c0 82 -19 137 -54
158 -33 20 -48 23 -59 12z"/>
<path d="M6648 5642 c-3 -11 -22 -23 -48 -31 -51 -15 -90 -51 -90 -84 0 -29
30 -57 95 -90 l50 -24 533 -5 533 -5 72 36 c89 45 108 75 80 124 -14 24 -36
39 -93 62 l-75 30 -526 3 c-502 2 -527 1 -531 -16z"/>
<path d="M7875 5420 c-3 -6 1 -7 9 -4 18 7 21 14 7 14 -6 0 -13 -4 -16 -10z"/>
<path d="M8360 5297 c0 -7 16 -45 35 -85 50 -105 111 -136 182 -92 59 36 107
168 67 184 -9 3 -76 6 -150 6 -102 0 -134 -3 -134 -13z"/>
<path d="M2106 5029 c-10 -85 -23 -135 -61 -233 l-32 -81 -119 0 c-65 0 -125
-4 -131 -8 -8 -5 -13 -30 -13 -63 l0 -54 -365 0 -365 0 0 -64 c0 -41 5 -67 14
-75 15 -12 3689 -12 3701 1 4 4 3 35 -2 69 l-8 63 -330 1 -330 0 0 63 0 62
-1002 0 -1003 0 0 26 c0 35 16 61 48 78 25 13 29 12 55 -10 l28 -24 745 0
c810 0 775 -2 851 56 41 31 45 79 10 112 -13 12 -27 22 -31 22 -5 0 -21 11
-38 25 l-30 25 -763 0 -763 0 -30 37 -29 36 -7 -64z m-88 -389 c-12 -64 -28
-88 -28 -43 0 29 27 109 35 102 2 -2 -2 -29 -7 -59z"/>
<path d="M8554 5034 c-19 -15 -19 -16 1 -8 11 5 41 9 67 9 25 0 44 3 41 7 -8
14 -89 8 -109 -8z"/>
<path d="M8565 4950 c-18 -57 54 -170 109 -170 52 0 47 96 -8 155 -39 41 -90
49 -101 15z"/>
<path d="M875 4350 c11 -17 132 -79 235 -119 58 -23 114 -46 125 -51 103 -46
514 -175 718 -224 334 -82 573 -110 932 -110 359 1 563 27 912 115 293 73 547
162 813 281 156 71 159 73 153 96 -4 16 -122 17 -1949 19 -1124 1 -1942 -1
-1939 -7z m2233 -128 c-4 -23 -90 -79 -141 -93 -70 -19 -193 -7 -262 25 -58
26 -118 73 -111 85 2 3 120 5 261 3 236 -2 256 -4 253 -20z"/>
<path d="M5496 4337 c-6 -23 96 -72 356 -171 557 -212 981 -301 1493 -313 447
-11 757 33 1203 168 263 80 612 212 745 282 70 37 75 42 55 50 -13 4 -883 7
-1935 5 -1817 -3 -1912 -4 -1917 -21z m1917 -99 c156 3 217 1 217 -7 0 -19
-122 -90 -176 -102 -78 -17 -159 -8 -228 26 -100 51 -143 106 -68 89 20 -5
135 -7 255 -6z"/>
<path d="M3279 3037 c-63 -31 -91 -87 -97 -190 l-5 -79 51 3 c27 2 48 1 45 -3
-6 -11 4 -10 30 3 15 7 13 2 -8 -15 -16 -14 -33 -26 -37 -26 -13 0 -9 18 5 24
6 3 -6 4 -28 4 -22 -1 -57 -9 -77 -19 -28 -13 -38 -14 -38 -5 0 7 -10 21 -21
32 -22 20 -37 49 -49 99 l-7 30 -21 -45 c-12 -25 -22 -58 -22 -73 0 -56 -14
-67 -79 -63 -32 2 -68 9 -79 15 -11 6 -31 11 -43 11 -14 0 -41 21 -75 58 l-53
57 -1 -81 c0 -76 -1 -81 -27 -100 -67 -47 -79 -49 -113 -20 -17 14 -36 26 -41
26 -5 0 -18 18 -29 40 -12 23 -28 44 -36 47 -8 3 -28 31 -44 62 -29 58 -55 89
-67 78 -10 -11 -6 -191 6 -250 15 -70 10 -87 -24 -87 -28 0 -81 47 -104 91
-15 31 -97 96 -126 101 -28 4 -31 -32 -9 -105 14 -47 15 -63 6 -78 -10 -15 -9
-19 0 -19 7 0 1 -10 -14 -21 -16 -12 -25 -26 -21 -34 3 -8 -1 -15 -8 -15 -7 0
-9 3 -6 6 4 4 -10 20 -30 36 -20 16 -43 38 -50 48 -8 11 -18 18 -23 15 -5 -3
-11 4 -15 15 -8 26 -54 80 -67 80 -6 0 -29 17 -52 37 -35 32 -41 35 -44 19 -2
-10 10 -45 26 -77 33 -63 30 -74 -9 -33 -21 22 -25 23 -35 9 -9 -11 -9 -26 -3
-48 11 -37 3 -83 -20 -114 -20 -28 -27 -28 -34 -3 -3 11 -17 24 -31 30 -14 5
-26 15 -26 21 0 6 -28 38 -61 70 -45 44 -69 59 -90 59 -34 0 -59 -32 -59 -76
0 -17 -6 -46 -14 -65 -9 -22 -11 -42 -5 -63 13 -43 11 -56 -6 -56 -18 0 -87
68 -80 79 8 14 -23 34 -44 28 -25 -6 -44 14 -69 74 -11 26 -26 50 -33 54 -16
11 -47 -31 -55 -75 -3 -20 -17 -45 -32 -57 -23 -20 -25 -25 -15 -42 16 -25 7
-30 -54 -38 -47 -5 -50 -4 -92 38 -24 24 -57 62 -74 84 l-29 40 6 -74 c4 -40
10 -79 13 -87 4 -10 -3 -14 -21 -14 -31 0 -33 -11 -7 -34 11 -10 25 -14 36
-10 13 5 16 4 11 -4 -14 -23 -44 -11 -70 28 -14 22 -32 40 -39 40 -8 0 -24 11
-37 25 -39 41 -54 33 -45 -22 13 -80 12 -88 -12 -91 -13 -2 -23 -8 -23 -13 0
-5 -10 -9 -22 -9 -23 0 -81 -16 -110 -31 -10 -5 -25 -9 -34 -9 -18 0 -163 -49
-179 -61 -5 -3 -46 -22 -90 -40 l-80 -34 70 -6 c97 -9 6118 -10 8249 -2 1942
7 1808 1 1581 70 -132 41 -134 41 -163 42 -13 1 -21 5 -18 10 4 5 -4 7 -16 3
-14 -3 -19 -2 -14 6 7 11 -38 38 -57 34 -4 -1 -5 9 -1 22 8 34 -13 42 -36 14
-16 -20 -22 -21 -39 -11 -15 10 -21 10 -25 0 -3 -9 -7 -9 -14 1 -7 11 -12 10
-26 -3 -15 -15 -16 -11 -13 57 1 43 9 86 19 105 16 31 15 32 -1 23 -10 -5 -41
-35 -70 -65 -33 -37 -50 -50 -49 -38 0 10 0 55 0 101 -2 93 -13 99 -36 21 -23
-76 -55 -126 -93 -144 -19 -9 -37 -15 -39 -12 -9 9 -64 121 -64 131 0 25 -22
86 -30 86 -18 0 -70 -83 -70 -112 0 -21 -5 -28 -18 -28 -11 0 -27 -9 -37 -20
-10 -11 -26 -20 -36 -20 -19 0 -59 45 -59 66 0 8 -15 31 -34 52 -19 21 -37 54
-41 75 -4 20 -11 37 -16 37 -11 0 -69 -79 -69 -95 0 -6 -21 -21 -46 -33 l-46
-23 4 -48 c4 -40 1 -50 -15 -60 -15 -10 -22 -10 -31 0 -8 9 -8 10 2 5 18 -11
40 16 32 39 -4 13 -9 15 -14 7 -8 -14 -52 -16 -60 -3 -3 5 -8 26 -12 46 -11
73 -43 178 -57 192 -13 13 -21 7 -67 -50 -29 -36 -59 -68 -66 -71 -8 -3 -14
-12 -14 -20 0 -18 -49 -46 -80 -46 -12 0 -35 14 -52 30 -16 17 -24 30 -17 30
12 0 5 79 -9 90 -9 7 -14 25 -20 85 -4 50 -16 75 -34 75 -20 0 -58 -50 -58
-78 0 -16 -8 -40 -18 -53 -10 -13 -26 -44 -37 -69 -24 -57 -31 -65 -60 -65
-18 -1 -25 6 -29 29 l-6 29 -28 -24 -27 -24 25 28 c34 39 53 109 54 199 1 56
-3 81 -14 92 -18 19 -27 13 -64 -42 -16 -24 -47 -57 -68 -73 -50 -40 -63 -65
-45 -84 8 -8 17 -11 21 -8 3 4 6 1 6 -5 0 -6 -9 -16 -20 -22 -15 -8 -18 -7
-15 2 3 7 1 19 -4 27 -7 12 -14 10 -37 -8 -20 -16 -36 -20 -58 -16 -28 5 -29
4 -9 -6 43 -22 40 -65 -4 -54 -14 3 -31 1 -39 -6 -10 -8 -14 -8 -14 0 0 6 1
13 3 14 1 2 -5 12 -13 23 -14 18 -14 18 4 4 10 -8 33 -15 50 -16 28 -2 29 -1
11 12 -11 8 -25 12 -31 10 -7 -3 -22 6 -35 20 -19 20 -20 24 -6 24 21 0 22 16
3 23 -8 3 -18 23 -21 44 -4 21 -9 44 -11 52 -8 24 -33 -8 -45 -56 -13 -48 -42
-64 -84 -45 -12 6 -26 7 -31 3 -5 -5 -22 -11 -39 -15 -18 -4 -25 -3 -17 2 21
14 -11 34 -41 26 -33 -8 -52 3 -37 21 7 9 6 16 -4 24 -9 8 -12 24 -9 50 5 33
2 40 -16 46 -29 9 -68 -17 -88 -61 -21 -43 -47 -50 -121 -33 l-57 14 -7 73
c-10 115 -17 140 -50 178 -61 70 98 64 -1871 64 l-1783 0 -45 -23z m2137 -179
c4 -4 1 -14 -6 -23 -15 -19 -1 -20 25 -1 40 27 39 27 625 27 207 -1 379 -5
410 -11 30 -6 89 -15 130 -20 41 -6 91 -15 110 -22 l35 -12 -40 -7 c-54 -11
-669 -9 -830 1 -71 5 -158 14 -193 19 -52 9 -68 8 -93 -5 -44 -22 -552 -22
-595 1 -35 18 -65 19 -61 3 3 -20 -269 -26 -888 -20 -297 3 -562 5 -590 6 -27
0 -63 -3 -80 -7 -30 -8 -29 -8 3 7 32 15 139 27 407 47 239 18 1615 32 1631
17z m-436 -93 c7 -8 17 -12 24 -8 6 3 8 3 4 -1 -3 -4 8 -21 25 -36 l32 -29
-30 5 c-16 3 -47 14 -68 25 -27 14 -49 18 -75 13 -20 -3 -49 -7 -63 -8 -14 -2
-30 -5 -35 -8 -5 -3 -25 -9 -44 -12 -26 -5 -31 -4 -20 3 8 6 24 11 35 11 11 0
29 9 39 21 11 13 25 19 37 16 10 -3 19 -1 19 4 0 5 11 7 25 3 15 -4 25 -2 25
5 0 16 56 13 70 -4z m1820 5 c0 -5 -7 -7 -15 -4 -8 4 -15 8 -15 10 0 2 7 4 15
4 8 0 15 -4 15 -10z m-3270 -10 c0 -5 -12 -10 -27 -10 -22 0 -25 2 -13 10 20
13 40 13 40 0z m674 -17 c-16 -12 -31 -19 -34 -16 -3 3 1 8 8 10 6 3 12 11 12
18 0 8 9 13 21 12 19 -1 19 -3 -7 -24z m116 17 c0 -5 -2 -10 -4 -10 -3 0 -8 5
-11 10 -3 6 -1 10 4 10 6 0 11 -4 11 -10z m360 -5 c0 -8 -4 -15 -10 -15 -5 0
-10 7 -10 15 0 8 5 15 10 15 6 0 10 -7 10 -15z m85 5 c3 -6 -1 -7 -9 -4 -18 7
-21 14 -7 14 6 0 13 -4 16 -10z m485 -1 c0 -8 4 -8 14 0 10 8 16 8 24 -2 8
-10 2 -12 -31 -11 -55 1 -59 2 -52 14 8 14 45 13 45 -1z m188 -13 c-1 -2 -18
-6 -37 -10 -34 -6 -34 -6 -16 14 14 15 22 17 37 9 11 -6 18 -12 16 -13z m252
20 c0 -2 -7 -9 -15 -16 -12 -10 -15 -10 -15 4 0 9 7 16 15 16 8 0 15 -2 15 -4z
m100 -31 c0 -6 -10 -11 -22 -12 -11 -1 -25 -8 -29 -15 -7 -10 -9 -10 -9 0 0
13 -32 17 -43 5 -11 -10 -110 -43 -115 -38 -3 3 8 18 25 34 23 21 37 27 57 24
16 -3 26 -1 26 7 0 6 8 9 18 6 10 -4 27 0 37 8 15 10 23 11 37 2 10 -6 18 -16
18 -21z m-2370 4 c0 -5 -7 -9 -15 -9 -15 0 -20 12 -9 23 8 8 24 -1 24 -14z
m2847 -4 c-11 -8 -25 -11 -33 -8 -21 8 -7 22 16 16 12 -3 20 0 20 8 0 7 3 9 7
5 5 -4 0 -14 -10 -21z m-2652 -9 c17 -16 17 -18 3 -13 -10 4 -18 2 -18 -3 0
-6 8 -10 17 -10 13 0 14 -3 5 -12 -8 -8 -15 -8 -25 0 -8 7 -17 9 -20 5 -4 -3
-7 1 -7 10 0 10 -7 17 -15 17 -8 0 -12 6 -9 13 7 19 46 15 69 -7z m94 -2 c17
-14 35 -22 41 -19 6 4 17 1 25 -5 8 -6 19 -9 25 -5 5 3 13 -2 17 -12 3 -10 19
-37 35 -60 29 -43 55 -56 55 -28 0 8 -4 15 -9 15 -21 0 -5 15 18 17 22 1 25
-2 21 -23 -2 -14 0 -27 4 -30 5 -3 9 -10 9 -15 0 -6 -5 -7 -12 -3 -7 4 -8 3
-4 -5 4 -6 12 -9 17 -6 5 4 12 -1 15 -9 3 -9 11 -13 18 -9 7 3 6 1 -1 -7 -11
-12 -18 -10 -43 8 -33 25 -45 28 -34 10 4 -7 4 -10 0 -6 -4 3 -7 9 -6 13 3 15
-28 31 -58 29 -19 -1 -32 3 -32 9 0 8 -3 8 -8 0 -13 -21 -51 12 -45 38 4 15 0
22 -16 26 -11 3 -19 9 -16 13 3 4 -14 18 -38 29 -30 16 -35 20 -15 16 15 -3
29 -1 33 4 3 5 -5 11 -17 13 -12 2 -23 9 -26 16 -6 20 14 14 47 -14z m111 22
c0 -3 -4 -8 -10 -11 -5 -3 -10 -1 -10 4 0 6 5 11 10 11 6 0 10 -2 10 -4z m820
1 c0 -2 -10 -12 -22 -23 l-23 -19 19 23 c18 21 26 27 26 19z m2267 -3 c-3 -3
-12 -4 -19 -1 -8 3 -5 6 6 6 11 1 17 -2 13 -5z m-2637 -14 c13 -8 13 -10 -2
-10 -9 0 -20 5 -23 10 -8 13 5 13 25 0z m1554 -6 c3 -8 2 -12 -4 -9 -6 3 -10
10 -10 16 0 14 7 11 14 -7z m-1594 -3 c0 -5 -8 -15 -17 -22 -16 -12 -17 -12
-6 2 7 9 10 19 6 22 -3 4 -1 7 5 7 7 0 12 -4 12 -9z m341 -36 c4 -6 7 -20 5
-30 -2 -15 -11 -20 -32 -20 -17 0 -38 -9 -51 -22 -27 -27 -41 -29 -39 -5 1 20
32 41 61 42 18 1 19 1 3 11 -12 7 -25 6 -40 -2 -21 -11 -22 -11 -9 4 7 10 19
17 25 17 6 0 22 12 36 27 23 24 25 24 29 7 2 -10 7 -24 12 -29z m674 35 c-3
-5 -11 -10 -16 -10 -6 0 -7 5 -4 10 3 6 11 10 16 10 6 0 7 -4 4 -10z m1535 -5
c14 -8 19 -14 12 -15 -7 0 -11 -4 -8 -9 3 -5 -10 -9 -29 -9 -32 0 -46 10 -27
21 4 2 2 3 -5 1 -6 -1 -19 4 -30 11 -16 13 -14 14 22 14 22 0 51 -6 65 -14z
m205 5 c3 -5 -3 -10 -14 -10 -12 0 -21 5 -21 10 0 6 6 10 14 10 8 0 18 -4 21
-10z m281 -5 c-11 -8 -25 -15 -30 -15 -6 0 -2 7 8 15 11 8 25 15 30 15 6 0 2
-7 -8 -15z m-4052 -10 c-4 -8 -11 -15 -16 -15 -6 0 -5 6 2 15 7 8 14 15 16 15
2 0 1 -7 -2 -15z m3643 9 c-3 -3 -12 -4 -19 -1 -8 3 -5 6 6 6 11 1 17 -2 13
-5z m-4092 -15 c12 -18 -3 -22 -20 -5 -14 14 -14 16 -1 16 8 0 18 -5 21 -11z
m3599 -9 c24 -23 -63 -51 -90 -29 -12 10 -10 15 13 30 27 16 58 16 77 -1z
m203 -4 c-2 -6 -13 -12 -25 -14 -11 -2 -26 -10 -32 -18 -19 -22 -39 -18 -33 7
4 14 12 19 24 16 17 -5 23 3 21 24 -1 3 10 4 24 1 14 -2 23 -10 21 -16z m473
15 c0 -11 -49 -21 -55 -10 -3 4 3 10 12 12 30 8 43 7 43 -2z m45 -18 l18 -28
-21 19 c-12 11 -22 23 -22 28 0 14 7 9 25 -19z m-3636 14 c-2 -1 -12 -9 -22
-16 -15 -12 -17 -12 -11 3 3 9 13 16 22 16 8 0 13 -1 11 -3z m450 -8 c6 9 11
10 15 2 4 -6 -3 -15 -16 -20 -13 -6 -17 -10 -10 -10 10 -1 10 -4 -2 -16 -20
-20 -22 -19 -20 13 2 45 4 48 14 32 8 -12 11 -13 19 -1z m291 1 c0 -5 -7 -10
-15 -10 -8 0 -15 5 -15 10 0 6 7 10 15 10 8 0 15 -4 15 -10z m1014 2 c3 -5 -5
-8 -17 -7 -12 1 -31 -2 -42 -8 -18 -9 -19 -9 -6 6 14 18 56 23 65 9z m649 1
c-7 -2 -19 -2 -25 0 -7 3 -2 5 12 5 14 0 19 -2 13 -5z m794 0 c-4 -3 -2 -12 4
-19 8 -10 1 -15 -28 -23 -71 -20 -97 -9 -50 22 29 19 89 35 74 20z m-1297 -18
c-14 -16 -25 -21 -15 -6 3 5 -3 12 -12 14 -11 3 -6 5 11 6 24 1 27 -1 16 -14z
m606 5 c8 0 14 -4 14 -10 0 -5 -7 -10 -15 -10 -8 0 -15 -4 -15 -9 0 -14 -60
-22 -81 -10 -27 14 -13 32 22 27 15 -2 28 -2 27 1 -2 18 4 22 18 17 9 -3 22
-6 30 -6z m-2348 -23 c14 -11 16 -31 2 -22 -5 3 -10 2 -10 -4 0 -5 5 -11 12
-13 7 -3 9 -12 5 -22 -10 -25 -42 -16 -41 12 1 23 -10 29 -21 13 -9 -15 -62
-10 -62 5 0 13 18 19 40 15 5 -1 6 3 2 9 -18 28 38 34 73 7z m2206 12 c-2 -4
2 -10 8 -12 8 -4 9 -6 2 -6 -6 -1 -17 5 -23 12 -8 10 -7 14 4 14 8 0 12 -4 9
-8z m1071 1 c3 -5 -1 -10 -9 -10 -9 0 -16 5 -16 10 0 6 4 10 9 10 6 0 13 -4
16 -10z m121 -31 c5 -8 3 -9 -6 -4 -7 4 -16 2 -22 -6 -8 -11 -9 -10 -4 3 6 22
-13 35 -25 17 -4 -7 -12 -10 -16 -5 -4 5 -2 11 5 13 6 3 9 9 6 15 -3 5 8 3 24
-6 17 -9 34 -21 38 -27z m304 20 c0 -11 -5 -19 -11 -17 -6 2 -10 7 -9 12 1 5
-4 13 -12 17 -9 6 -7 9 10 9 16 0 22 -6 22 -21z m-4875 -11 c4 -13 8 -31 9
-40 0 -10 4 -18 9 -18 4 0 12 0 18 0 6 0 9 7 5 15 -3 9 0 15 9 15 8 0 15 9 15
20 0 11 5 20 11 20 6 0 8 -8 4 -19 -5 -15 -2 -18 13 -14 11 2 22 0 26 -5 3 -5
-6 -9 -21 -9 -17 0 -33 -10 -46 -27 -14 -20 -22 -24 -32 -16 -9 7 -15 8 -19 1
-4 -6 -13 -8 -21 -5 -8 4 -12 11 -9 16 4 6 10 5 15 -3 7 -11 9 -11 9 2 0 9 -9
19 -20 22 -24 6 -27 37 -4 37 10 0 14 6 10 15 -3 8 -2 15 3 15 5 0 12 -10 16
-22z m459 -3 c-29 -22 -42 -17 -15 6 13 11 26 17 29 14 3 -3 -3 -12 -14 -20z
m151 15 c4 -6 -5 -10 -19 -10 -14 0 -26 5 -26 10 0 6 9 10 19 10 11 0 23 -4
26 -10z m1075 1 c0 -5 -7 -11 -15 -15 -15 -5 -20 5 -8 17 9 10 23 9 23 -2z
m570 5 c0 -2 -8 -10 -17 -17 -16 -13 -17 -12 -4 4 13 16 21 21 21 13z m1415
-6 c3 -6 -1 -7 -9 -4 -18 7 -21 14 -7 14 6 0 13 -4 16 -10z m726 -12 c5 -10
25 -20 44 -24 19 -3 35 -10 35 -15 0 -12 -47 -11 -55 1 -3 6 -16 8 -28 6 -12
-1 -16 -1 -10 1 10 3 10 10 2 24 -8 16 -13 18 -25 9 -14 -12 -44 -7 -44 7 0
17 71 8 81 -9z m299 18 c0 -3 -4 -8 -10 -11 -5 -3 -10 -1 -10 4 0 6 5 11 10
11 6 0 10 -2 10 -4z m215 -6 c3 -5 1 -10 -4 -10 -6 0 -11 5 -11 10 0 6 2 10 4
10 3 0 8 -4 11 -10z m-4510 -10 c-3 -5 -13 -10 -21 -10 -8 0 -14 5 -14 10 0 6
9 10 21 10 11 0 17 -4 14 -10z m1225 6 c0 -2 -6 -9 -14 -15 -11 -9 -16 -9 -22
0 -4 7 -3 9 4 5 6 -3 13 -2 17 4 6 10 15 14 15 6z m250 0 c0 -2 -9 -6 -20 -9
-11 -3 -18 -1 -14 4 5 9 34 13 34 5z m1010 -5 c0 -11 -31 -24 -38 -16 -3 3 0
5 7 5 7 0 9 5 6 10 -3 6 1 10 9 10 9 0 16 -4 16 -9z m1745 -18 c-22 -16 -32
-16 -40 -3 -3 6 3 10 14 10 12 0 21 5 21 11 0 5 5 7 12 3 7 -5 5 -11 -7 -21z
m349 -28 c-4 -10 -11 -10 -29 -1 -20 9 -21 12 -8 17 12 4 13 8 5 13 -7 4 -12
12 -12 18 0 6 11 1 24 -11 14 -13 22 -29 20 -36z m-4424 34 c0 -5 -4 -11 -10
-14 -5 -3 -10 -2 -10 4 0 6 -6 8 -14 5 -8 -3 -16 -2 -19 3 -3 4 8 8 24 8 16 1
29 -2 29 -6z m2800 -13 c0 -2 -9 -2 -20 1 -11 3 -20 9 -20 15 0 5 9 4 20 -2
11 -6 20 -12 20 -14z m1738 11 c15 -10 16 -27 1 -27 -5 0 -8 4 -5 9 4 5 -13 9
-36 9 -63 0 -76 3 -48 11 31 9 71 8 88 -2z m-4603 -7 c3 -5 1 -10 -4 -10 -6 0
-11 5 -11 10 0 6 2 10 4 10 3 0 8 -4 11 -10z m1219 2 c2 -4 -5 -9 -17 -9 -17
-2 -19 0 -7 7 18 12 18 12 24 2z m921 -2 c3 -5 1 -10 -4 -10 -6 0 -11 5 -11
10 0 6 2 10 4 10 3 0 8 -4 11 -10z m956 -3 c-7 -7 -14 -8 -21 -1 -6 6 -2 10
12 11 16 2 18 -1 9 -10z m294 3 c3 -5 1 -10 -4 -10 -6 0 -11 5 -11 10 0 6 2
10 4 10 3 0 8 -4 11 -10z m973 1 c10 -6 5 -11 -18 -20 -33 -11 -50 -8 -50 10
0 5 12 6 26 3 19 -5 25 -4 20 5 -8 13 3 14 22 2z m606 -13 c-5 -7 -9 -16 -10
-20 -1 -5 -2 -11 -3 -15 -1 -5 -5 -1 -11 7 -6 10 -4 20 8 31 19 19 28 17 16
-3z m346 -4 c0 -12 -4 -12 -19 -2 -11 7 -18 15 -15 20 7 11 34 -3 34 -18z
m-4760 1 c0 -8 -4 -15 -10 -15 -5 0 -10 7 -10 15 0 8 5 15 10 15 6 0 10 -7 10
-15z m700 5 c0 -5 -4 -10 -10 -10 -5 0 -10 5 -10 10 0 6 5 10 10 10 6 0 10 -4
10 -10z m1640 6 c0 -3 -4 -8 -10 -11 -5 -3 -10 -1 -10 4 0 6 5 11 10 11 6 0
10 -2 10 -4z m216 -54 c-10 -10 -16 -12 -16 -5 0 7 5 15 10 18 6 3 11 16 11
28 2 21 2 21 6 -2 3 -13 -2 -30 -11 -39z m218 49 c11 -4 15 -10 9 -14 -5 -3
-19 0 -29 8 -20 15 -11 18 20 6z m-4095 -37 c12 -19 25 -33 30 -30 11 7 9 -13
-3 -32 -6 -10 -11 -10 -22 -1 -7 6 -12 15 -9 19 2 4 -3 14 -13 23 -17 15 -21
17 -42 17 -7 0 -7 6 0 20 16 30 35 24 59 -16z m967 10 c-8 -7 -22 -11 -31 -8
-14 6 -13 8 7 19 29 15 43 9 24 -11z m144 16 c0 -5 -5 -10 -11 -10 -5 0 -7 5
-4 10 3 6 8 10 11 10 2 0 4 -4 4 -10z m150 0 c0 -5 -7 -10 -15 -10 -8 0 -15 5
-15 10 0 6 7 10 15 10 8 0 15 -4 15 -10z m1001 -31 c-17 -19 -24 -20 -43 -11
l-23 11 23 0 c12 1 22 6 22 11 0 6 7 10 15 10 8 0 15 6 16 13 0 9 2 9 6 0 2
-7 -5 -22 -16 -34z m184 31 c-3 -5 -11 -10 -16 -10 -6 0 -7 5 -4 10 3 6 11 10
16 10 6 0 7 -4 4 -10z m1265 6 c0 -2 -9 -6 -20 -9 -11 -3 -20 -1 -20 4 0 5 9
9 20 9 11 0 20 -2 20 -4z m690 -7 c0 -4 -14 -7 -31 -7 -16 1 -26 4 -20 7 14 9
51 8 51 0z m790 -15 c0 -16 -26 -19 -35 -4 -3 6 -4 14 0 20 8 13 35 1 35 -16z
m-3269 -7 c-13 -13 -26 -3 -16 12 3 6 11 8 17 5 6 -4 6 -10 -1 -17z m176 12
c-9 -6 -15 -14 -12 -20 4 -5 -1 -9 -9 -9 -9 0 -16 9 -16 20 0 15 7 20 28 20
23 -1 25 -2 9 -11z m1029 -8 c-7 -11 -65 -11 -71 0 -3 5 1 6 9 3 8 -3 23 -1
33 4 18 11 37 6 29 -7z m2009 9 c3 -5 1 -10 -4 -10 -6 0 -11 5 -11 10 0 6 2
10 4 10 3 0 8 -4 11 -10z m545 -2 c0 9 20 -21 20 -30 0 -5 -3 -7 -7 -7 -21 3
-31 -3 -36 -20 -3 -12 -13 -19 -23 -19 -11 1 -29 -2 -41 -6 -12 -4 -24 -3 -27
2 -9 15 30 39 57 36 24 -2 26 0 17 16 -17 32 -12 40 15 30 14 -5 25 -6 25 -2z
m-5080 -20 c0 -5 -4 -7 -9 -3 -6 3 -14 -2 -19 -12 -8 -14 -13 -15 -25 -5 -10
9 -22 10 -41 2 -27 -10 -34 -2 -15 17 7 7 24 9 39 6 15 -3 31 0 34 6 8 12 36
4 36 -11z m105 -27 c-10 -9 -24 21 -17 37 4 12 7 10 14 -8 5 -13 6 -25 3 -29z
m2061 13 c24 -19 44 -41 44 -47 0 -7 -5 -4 -11 6 -5 9 -15 17 -20 17 -6 0 -7
-4 -4 -10 3 -5 1 -10 -5 -10 -6 0 -16 12 -22 28 -16 37 -18 38 -28 22 -8 -12
-10 -10 -10 8 0 29 5 28 56 -14z m1429 26 c3 -5 1 -10 -4 -10 -6 0 -11 5 -11
10 0 6 2 10 4 10 3 0 8 -4 11 -10z m315 -4 c8 -1 16 -6 17 -10 1 -5 7 -13 15
-17 9 -6 9 -9 1 -9 -6 0 -15 5 -18 10 -10 16 -28 12 -22 -4 4 -10 1 -13 -9 -9
-17 6 -18 20 -1 26 7 3 6 6 -5 6 -9 1 -20 6 -24 13 -5 8 -2 9 12 3 10 -4 26
-8 34 -9z m604 -1 c3 -8 1 -15 -5 -15 -6 0 -7 -5 -3 -11 4 -7 -1 -7 -16 1 -12
6 -31 9 -42 7 -16 -5 -17 -3 -7 9 7 9 21 13 31 11 10 -3 18 -1 18 4 0 15 17
10 24 -6z m236 5 c0 -5 -7 -10 -15 -10 -8 0 -15 -7 -15 -15 0 -12 -4 -13 -25
-3 -26 12 -36 32 -11 22 8 -3 17 -1 21 5 8 14 45 14 45 1z m-4258 -15 c0 -5
-5 -11 -10 -13 -5 -1 -9 4 -9 13 0 9 4 14 9 13 5 -2 10 -8 10 -13z m55 1 c0
-8 -8 -11 -19 -8 -10 2 -18 8 -18 13 0 5 8 9 18 9 10 0 19 -6 19 -14z m273 -7
c0 -13 -13 -11 -35 5 -18 13 -18 14 8 9 15 -3 27 -9 27 -14z m2417 7 c-23 -18
-5 -32 48 -35 22 -1 44 -6 49 -11 6 -6 24 -10 41 -10 18 0 35 -3 39 -7 4 -4
15 -8 24 -8 9 0 16 -6 15 -12 -4 -16 63 -18 72 -3 3 6 11 10 16 10 6 0 7 -4 4
-10 -3 -5 -1 -10 5 -10 6 0 8 -5 4 -11 -4 -8 -9 -7 -15 2 -6 10 -10 7 -18 -11
-5 -14 -10 -19 -10 -13 -1 9 -8 10 -28 2 -29 -11 -66 -3 -45 10 8 5 4 13 -16
28 -21 16 -40 20 -77 18 -28 -2 -50 -4 -50 -5 0 -1 -13 -3 -30 -5 l-30 -2 28
10 c33 13 35 27 5 26 -23 0 -71 -17 -55 -18 13 -1 -20 -31 -34 -31 -6 0 -20
10 -30 22 -17 18 -23 20 -45 10 -39 -18 -52 -14 -24 8 18 14 20 20 10 20 -9 0
-20 -4 -25 -8 -6 -5 -21 -3 -35 5 -23 13 -20 14 43 10 37 -3 70 -1 73 4 3 5
15 9 27 9 12 0 31 7 41 15 11 8 25 15 30 15 6 0 3 -7 -7 -14z m2203 -20 c-6
-6 -15 -5 -23 2 -11 9 -18 8 -31 -6 -9 -10 -13 -22 -9 -27 5 -4 2 -5 -5 -1
-11 6 -11 11 0 24 21 27 31 32 45 20 10 -8 13 -6 13 8 0 16 2 17 10 4 5 -9 6
-18 0 -24z m-5132 17 c-10 -2 -26 -2 -35 0 -10 3 -2 5 17 5 19 0 27 -2 18 -5z
m382 3 c0 -3 -4 -8 -10 -11 -5 -3 -10 -1 -10 4 0 6 5 11 10 11 6 0 10 -2 10
-4z m740 -13 c0 -10 -4 -14 -8 -8 -4 6 -11 13 -16 18 -5 4 -2 7 7 7 10 0 17
-8 17 -17z m163 5 c8 -23 -11 -45 -53 -62 -22 -9 -40 -20 -40 -26 0 -5 -10
-14 -21 -21 -17 -9 -23 -8 -30 2 -7 11 -9 10 -9 -3 0 -11 -8 -18 -20 -18 -11
0 -20 6 -20 14 0 21 49 49 76 43 13 -2 24 0 24 5 0 11 61 48 71 42 4 -2 5 5 2
16 -6 21 12 28 20 8z m510 -6 c24 -21 21 -37 -9 -61 -39 -30 -45 -27 -43 27 2
53 18 63 52 34z m-1738 -2 c8 -13 -5 -13 -25 0 -13 8 -13 10 2 10 9 0 20 -4
23 -10z m1195 0 c0 -5 -4 -10 -9 -10 -6 0 -13 5 -16 10 -3 6 1 10 9 10 9 0 16
-4 16 -10z m2253 -3 c-3 -6 -1 -7 5 -3 11 6 72 -19 72 -30 0 -2 -9 0 -19 6
-25 13 -34 13 -26 0 4 -6 -5 -10 -20 -10 -15 0 -24 -4 -20 -10 9 -15 -8 -12
-31 5 -13 10 -15 14 -5 15 8 0 12 3 9 6 -4 3 -20 -2 -37 -10 -20 -11 -32 -13
-37 -5 -4 8 -9 8 -17 0 -6 -6 -15 -11 -19 -11 -4 0 5 13 22 28 23 23 38 28 79
29 33 0 48 -3 44 -10z m829 1 c-9 -9 -15 -9 -24 0 -9 9 -7 12 12 12 19 0 21
-3 12 -12z m-5164 -17 c-7 -11 -16 -18 -20 -15 -4 3 -2 11 5 19 18 21 29 18
15 -4z m777 1 c-3 -3 -11 0 -18 7 -9 10 -8 11 6 5 10 -3 15 -9 12 -12z m159 6
c-3 -4 -9 -8 -15 -8 -5 0 -9 4 -9 8 0 5 7 9 15 9 8 0 12 -4 9 -9z m2206 8 c0
-2 -11 -6 -25 -8 -14 -3 -25 -1 -25 3 0 5 11 9 25 9 14 0 25 -2 25 -4z m37 -2
c-3 -3 -12 -4 -19 -1 -8 3 -5 6 6 6 11 1 17 -2 13 -5z m1910 0 c13 -4 21 -10
18 -14 -3 -5 -1 -12 5 -15 8 -5 8 -11 0 -20 -9 -11 -14 -11 -29 4 -10 10 -24
20 -32 23 -7 2 -9 10 -5 16 8 14 12 14 43 6z m201 -28 c-2 -11 -10 -21 -18
-21 -19 0 -31 26 -18 42 14 18 39 3 36 -21z m-5418 9 c0 -8 -4 -15 -10 -15 -5
0 -7 7 -4 15 4 8 8 15 10 15 2 0 4 -7 4 -15z m668 -3 c2 -7 -3 -12 -12 -12 -9
0 -16 7 -16 16 0 17 22 14 28 -4z m32 8 c0 -5 -5 -10 -11 -10 -5 0 -7 5 -4 10
3 6 8 10 11 10 2 0 4 -4 4 -10z m110 0 c0 -5 -5 -10 -11 -10 -5 0 -7 5 -4 10
3 6 8 10 11 10 2 0 4 -4 4 -10z m198 -16 c-7 -6 -57 9 -53 17 3 4 17 3 30 -3
14 -6 24 -12 23 -14z m1002 22 c0 -3 -4 -8 -10 -11 -5 -3 -10 -1 -10 4 0 6 5
11 10 11 6 0 10 -2 10 -4z m424 -11 c-11 -26 -64 -31 -64 -5 0 9 22 17 52 19
11 1 15 -4 12 -14z m992 -6 c8 -14 -52 -10 -64 4 -9 10 -4 12 24 9 19 -2 37
-8 40 -13z m1674 3 c-8 -3 -21 -11 -28 -19 -7 -7 -21 -13 -30 -13 -13 1 -9 7
12 24 16 14 36 22 45 18 12 -5 13 -6 1 -10z m388 -23 c11 0 13 -2 4 -6 -14 -6
-52 24 -52 41 0 6 7 0 16 -12 8 -12 23 -22 32 -23z m-4173 21 c-3 -5 -15 -10
-26 -10 -11 0 -17 5 -14 10 3 6 15 10 26 10 11 0 17 -4 14 -10z m663 -2 c-3
-7 -13 -15 -24 -17 -16 -3 -17 -1 -5 13 16 19 34 21 29 4z m557 2 c14 -6 5 -8
-31 -7 -29 1 -50 5 -47 10 6 9 53 8 78 -3z m550 2 c16 -11 19 -45 3 -39 -7 2
-12 10 -10 17 2 7 -3 17 -10 21 -7 5 -8 9 -3 9 6 0 15 -4 20 -8z m405 -2 c0
-5 -2 -10 -4 -10 -3 0 -8 5 -11 10 -3 6 -1 10 4 10 6 0 11 -4 11 -10z m650 0
c0 -5 -5 -10 -11 -10 -5 0 -7 5 -4 10 3 6 8 10 11 10 2 0 4 -4 4 -10z m1135 0
c3 -6 -1 -7 -9 -4 -18 7 -21 14 -7 14 6 0 13 -4 16 -10z m60 0 c-3 -5 -12 -7
-20 -3 -21 7 -19 13 6 13 11 0 18 -4 14 -10z m475 -3 c0 -5 9 -6 19 -2 27 8
32 -7 12 -34 -15 -20 -21 -22 -37 -12 -16 11 -16 12 -1 7 21 -7 22 2 1 25 -9
10 -23 15 -32 12 -10 -4 -13 -2 -8 5 7 12 46 12 46 -1z m-5595 -9 c-11 -7 -26
-18 -33 -25 -8 -7 -22 -17 -32 -23 -14 -7 -19 -5 -23 10 -5 19 6 25 39 21 6
-1 17 6 24 14 7 8 20 15 29 15 13 -1 12 -3 -4 -12z m555 -8 c0 -11 -7 -20 -15
-20 -13 0 -13 3 -3 20 7 11 14 20 15 20 2 0 3 -9 3 -20z m109 -11 c-25 -19
-43 -25 -36 -11 2 4 7 15 10 24 4 11 13 15 28 11 l22 -6 -24 -18z m2180 -3
c-3 -3 -11 5 -18 17 -13 21 -12 21 5 5 10 -10 16 -20 13 -22z m100 -32 c-36
-12 -63 -8 -53 7 3 5 13 9 22 9 14 0 13 2 -3 13 -10 8 -15 19 -11 26 5 8 18 3
43 -16 l35 -27 -33 -12z m46 50 c31 -20 32 -36 3 -32 -15 2 -22 9 -21 21 0 12
-4 16 -13 13 -8 -3 -14 -1 -14 4 0 15 17 12 45 -6z m1388 4 c12 2 17 -3 16
-20 -1 -17 -2 -19 -6 -5 -2 10 -10 17 -16 16 -24 -3 -37 1 -37 12 0 6 5 7 13
2 6 -4 20 -6 30 -5z m1507 3 c0 -12 -28 -22 -34 -12 -3 5 -3 11 1 15 9 9 33 7
33 -3z m-6279 -18 c12 -15 12 -16 -4 -10 -10 4 -23 7 -28 7 -5 0 -9 5 -9 10 0
16 26 12 41 -7z m1638 1 c6 4 11 4 11 -1 0 -4 -11 -13 -25 -20 -14 -6 -25 -7
-25 -3 0 5 6 11 13 13 6 3 1 6 -13 7 -23 1 -23 2 -5 9 11 5 23 4 26 -2 4 -5
12 -6 18 -3z m451 6 c0 -5 -4 -10 -10 -10 -5 0 -10 5 -10 10 0 6 5 10 10 10 6
0 10 -4 10 -10z m170 0 c0 -5 -4 -10 -10 -10 -5 0 -10 5 -10 10 0 6 5 10 10
10 6 0 10 -4 10 -10z m2190 0 c0 -5 -15 -10 -32 -9 -31 1 -32 1 -8 9 35 11 40
11 40 0z m2530 -15 c14 -19 14 -19 -2 -6 -10 7 -18 18 -18 24 0 6 1 8 3 6 1
-2 9 -13 17 -24z m-5990 5 c0 -5 -5 -10 -11 -10 -5 0 -7 5 -4 10 3 6 8 10 11
10 2 0 4 -4 4 -10z m1217 4 c13 -4 20 -10 18 -15 -3 -4 -13 -5 -21 -2 -9 3
-20 0 -25 -8 -14 -22 -10 -31 10 -24 16 5 18 2 14 -15 -6 -24 -54 -28 -73 -5
-10 12 -19 11 -66 -6 -30 -11 -60 -19 -67 -16 -6 2 3 9 22 14 50 13 52 33 3
26 -41 -6 -63 10 -43 30 8 8 28 7 73 -1 70 -12 118 -7 118 14 0 16 5 16 37 8z
m1273 2 c0 -11 -19 -15 -25 -6 -3 5 1 10 9 10 9 0 16 -2 16 -4z m80 -7 c12 -9
11 -10 -7 -6 -13 3 -23 1 -23 -4 0 -5 7 -9 15 -9 8 0 15 -4 15 -10 0 -14 -19
-12 -35 4 -10 10 -11 16 -2 25 14 14 18 14 37 0z m1035 1 c3 -6 -4 -10 -17
-10 -18 0 -20 2 -8 10 19 12 18 12 25 0z m499 0 c14 -5 26 -16 26 -24 0 -22
42 -57 60 -51 8 3 5 -4 -8 -14 -18 -15 -29 -18 -50 -11 -15 5 -36 11 -47 14
-11 3 -1 4 23 2 23 -2 42 0 42 4 0 11 -37 23 -49 16 -4 -3 -18 2 -29 12 l-21
18 21 13 c17 11 18 15 7 22 -19 12 -6 11 25 -1z m1051 1 c-3 -2 1 -11 8 -20
10 -14 10 -14 -4 -3 -9 7 -25 9 -34 5 -12 -4 -16 -3 -12 4 5 7 -1 9 -15 5 -12
-3 -17 -7 -10 -10 23 -7 12 -19 -15 -16 -15 1 -31 -3 -35 -9 -5 -8 -8 -6 -8 5
0 22 52 45 97 45 18 -1 30 -3 28 -6z m-6907 -31 c21 -28 22 -30 3 -39 -16 -9
-21 -6 -30 21 -20 57 -8 66 27 18z m472 20 c0 -5 -10 -10 -22 -9 -22 0 -22 1
-3 9 11 5 21 9 23 9 1 1 2 -3 2 -9z m1188 -15 c-3 -3 -13 -2 -22 1 -14 5 -15
9 -4 15 13 8 36 -6 26 -16z m584 9 c-24 -17 -39 -14 -27 5 3 6 16 11 28 11
l21 0 -22 -16z m72 -5 c-8 -14 -24 -10 -24 6 0 9 6 12 15 9 8 -4 12 -10 9 -15z
m1011 11 c-3 -5 -15 -10 -26 -10 -11 0 -17 5 -14 10 3 6 15 10 26 10 11 0 17
-4 14 -10z m435 -5 c31 -16 39 -42 18 -63 -8 -8 -8 -15 3 -28 13 -16 12 -16
-18 -1 -18 10 -40 17 -50 17 -10 0 -24 12 -30 27 -11 22 -10 29 4 45 20 22 35
23 73 3z m1600 -10 c24 5 29 4 24 -8 -4 -11 -13 -13 -39 -7 -39 9 -78 -11 -68
-35 3 -10 1 -13 -9 -10 -8 3 -21 -2 -29 -11 -13 -16 -12 -17 9 -12 12 4 22 3
22 -2 0 -13 -23 -17 -55 -9 -16 4 -26 7 -21 8 5 0 3 8 -4 16 -11 13 -15 13
-33 0 -12 -8 -31 -15 -42 -14 -13 0 -4 8 25 21 25 12 51 20 58 19 6 -1 12 3
12 9 0 5 -5 10 -11 10 -6 0 -9 7 -5 15 3 8 0 15 -6 15 -6 0 -9 2 -6 5 9 9 69
-21 61 -30 -5 -4 -3 -5 4 -1 7 4 10 13 7 20 -8 20 26 25 53 8 14 -9 33 -11 53
-7z m344 4 c-6 -11 -24 -2 -24 11 0 5 7 7 15 4 8 -4 12 -10 9 -15z m1279 9
c12 -7 27 -12 32 -13 30 -2 75 -18 75 -26 0 -6 -8 -5 -20 1 -11 6 -30 8 -42 5
-16 -4 -33 3 -53 19 -32 27 -28 34 8 14z m-6187 -13 c-23 -17 -36 -19 -36 -6
0 5 8 12 18 14 32 9 37 6 18 -8z m1794 0 c-3 -5 -12 -10 -20 -11 -8 -1 -26 -5
-40 -8 -14 -4 -18 -3 -10 0 8 4 19 13 23 21 9 16 55 14 47 -2z m3954 -6 c-16
-17 -16 -22 -4 -30 11 -6 4 -8 -22 -6 -48 3 -48 12 0 36 48 25 48 25 26 0z
m86 11 c0 -5 -2 -10 -4 -10 -3 0 -8 5 -11 10 -3 6 -1 10 4 10 6 0 11 -4 11
-10z m-5683 -15 c0 -8 -7 -15 -15 -15 -8 0 -12 -6 -9 -14 4 -9 -3 -16 -19 -20
-14 -4 -22 -11 -19 -16 3 -5 13 -7 23 -4 14 5 15 4 2 -5 -8 -6 -25 -11 -37
-11 -29 0 -81 21 -65 27 6 3 12 11 12 19 0 8 5 14 10 14 13 0 13 -17 -1 -26
-8 -4 -7 -9 2 -15 17 -10 49 17 49 42 0 13 -5 17 -17 13 -15 -5 -16 -4 -3 5 8
6 24 11 35 11 17 0 17 -2 5 -10 -13 -8 -13 -10 1 -10 9 0 22 7 29 15 7 8 13
15 15 15 1 0 2 -7 2 -15z m559 -10 c-3 -9 -11 -13 -17 -10 -6 4 -13 -3 -16
-15 -4 -16 -8 -18 -14 -9 -4 7 -3 21 2 32 8 14 13 16 25 6 11 -9 14 -8 14 6 0
10 3 16 6 12 4 -3 4 -13 0 -22z m54 10 c16 -19 5 -34 -20 -28 -22 6 -22 6 -14
27 8 20 18 20 34 1z m967 9 c-3 -3 -12 -4 -19 -1 -8 3 -5 6 6 6 11 1 17 -2 13
-5z m1124 -25 c16 -17 29 -32 29 -34 0 -1 -11 -5 -24 -7 -18 -4 -23 -1 -19 10
4 8 -1 19 -10 24 -16 8 -24 38 -11 38 3 0 19 -14 35 -31z m564 20 c-4 -5 -15
-9 -26 -9 -26 0 -17 15 10 17 12 1 19 -2 16 -8z m45 1 c0 -5 -5 -10 -11 -10
-5 0 -7 5 -4 10 3 6 8 10 11 10 2 0 4 -4 4 -10z m615 0 c8 -13 -45 -13 -65 0
-11 7 -6 10 22 10 20 0 40 -4 43 -10z m40 -8 c-3 -3 -11 0 -18 7 -9 10 -8 11
6 5 10 -3 15 -9 12 -12z m620 0 c-3 -3 -11 0 -18 7 -9 10 -8 11 6 5 10 -3 15
-9 12 -12z m763 6 c-2 -8 6 -12 20 -10 16 1 22 -2 19 -10 -2 -7 -10 -12 -16
-10 -7 1 -10 -2 -6 -8 3 -5 18 -10 33 -9 15 0 21 3 15 6 -7 2 -13 10 -13 17 0
10 40 12 101 4 34 -5 7 -24 -29 -21 -29 2 -33 1 -17 -6 17 -8 13 -10 -20 -11
-22 -2 -44 -1 -50 1 -5 2 -30 3 -55 3 -27 1 -45 6 -45 13 0 6 -3 15 -7 19 -5
4 -8 2 -8 -5 0 -7 -6 -11 -13 -8 -8 3 -13 -4 -12 -22 0 -16 -6 -26 -15 -26 -8
-1 -28 -6 -43 -13 -34 -15 -37 -15 -37 -2 0 6 10 10 22 10 17 0 19 3 10 12
-19 19 -14 30 11 26 16 -2 23 3 25 20 2 12 -2 22 -9 22 -7 0 -10 2 -8 5 3 2
19 1 36 -4 23 -7 37 -5 50 5 23 17 64 18 61 2z m149 6 c-3 -3 -12 -4 -19 -1
-8 3 -5 6 6 6 11 1 17 -2 13 -5z m-5227 -59 c0 -8 -7 -15 -15 -15 -9 0 -15 -9
-15 -21 0 -15 -5 -20 -22 -17 -16 2 -28 -5 -40 -24 -16 -26 -19 -27 -45 -13
-15 8 -33 15 -40 15 -6 0 -15 5 -19 11 -5 8 1 10 20 7 14 -3 26 -1 26 3 0 5 7
6 15 3 8 -4 15 -1 15 5 0 6 -14 14 -30 18 -26 5 -29 8 -18 21 10 12 10 14 1 8
-9 -5 -13 -1 -14 11 0 10 -3 13 -6 6 -6 -16 -45 -17 -61 -1 -15 15 -15 28 -1
28 5 0 7 -5 3 -12 -5 -8 -2 -9 12 -4 41 17 55 18 85 5 29 -12 30 -13 13 -26
-10 -7 -15 -13 -11 -13 15 0 23 -3 42 -16 23 -17 35 -18 35 -3 0 5 -4 7 -10 4
-5 -3 -10 -1 -10 4 0 6 4 11 10 11 5 0 6 8 3 18 -6 15 -5 15 11 3 9 -8 15 -20
12 -28 -4 -8 -1 -11 5 -7 6 3 8 17 5 31 -4 13 -4 29 0 34 8 13 44 -24 44 -46z
m963 36 c4 -4 -3 -7 -15 -5 -13 1 -29 3 -36 3 -7 1 -10 6 -7 11 7 11 43 5 58
-9z m1092 9 c-3 -5 -11 -10 -16 -10 -6 0 -7 5 -4 10 3 6 11 10 16 10 6 0 7 -4
4 -10z m865 0 c-8 -5 -19 -10 -25 -10 -5 0 -3 5 5 10 8 5 20 10 25 10 6 0 3
-5 -5 -10z m390 -12 c0 -6 -7 -7 -16 -4 -9 3 -27 6 -40 6 -14 0 -23 4 -20 8 7
11 76 2 76 -10z m1150 12 c20 -12 9 -21 -18 -13 -12 3 -19 9 -16 14 7 11 15
11 34 -1z m75 0 c3 -5 1 -10 -4 -10 -6 0 -11 5 -11 10 0 6 2 10 4 10 3 0 8 -4
11 -10z m353 -4 c7 -4 12 -11 12 -16 0 -13 -32 -21 -45 -10 -21 18 -25 -2 -5
-28 26 -32 12 -53 -28 -43 -15 4 -26 10 -24 14 1 4 2 12 2 18 0 6 7 3 16 -6
21 -20 29 -13 15 14 -7 13 -18 18 -32 16 -12 -3 -29 0 -38 5 -15 9 -15 9 0 10
9 0 24 9 34 20 18 20 65 23 93 6z m630 -6 c3 -7 0 -10 -7 -6 -6 4 -11 3 -11
-2 0 -19 -37 -19 -48 -1 -16 25 -17 24 25 23 20 -1 39 -7 41 -14z m1019 -12
c-3 -7 -5 -2 -5 12 0 14 2 19 5 13 2 -7 2 -19 0 -25z m-7152 16 c14 -6 14 -8
-2 -19 -10 -7 -37 -16 -60 -20 -38 -6 -42 -9 -32 -26 8 -15 6 -21 -7 -26 -10
-4 -19 -2 -22 5 -2 7 -7 10 -12 7 -4 -3 -13 2 -20 10 -10 12 -9 15 8 15 18 0
46 29 39 41 -1 2 3 -1 8 -7 13 -14 35 -7 35 12 0 15 35 19 65 8z m1984 -3 c8
-5 9 -11 3 -15 -5 -3 -15 1 -22 9 -14 16 -3 20 19 6z m3138 3 c-3 -3 -12 -4
-19 -1 -8 3 -5 6 6 6 11 1 17 -2 13 -5z m923 -6 c0 -5 -4 -7 -9 -3 -5 3 -12 1
-16 -5 -9 -14 -22 -12 -28 4 -4 11 2 14 24 14 16 -1 29 -5 29 -10z m-4817 -18
c3 -11 1 -18 -3 -15 -5 3 -11 -4 -15 -15 -3 -11 -10 -20 -15 -20 -6 0 -5 11 0
26 6 14 8 30 4 35 -3 5 1 9 9 9 8 0 17 -9 20 -20z m827 10 c0 -5 -10 -10 -22
-10 -19 0 -20 2 -8 10 19 13 30 13 30 0z m520 6 c0 -3 -4 -8 -10 -11 -5 -3
-10 -1 -10 4 0 6 5 11 10 11 6 0 10 -2 10 -4z m350 0 c0 -2 -7 -7 -16 -10 -8
-3 -12 -2 -9 4 6 10 25 14 25 6z m76 -34 c1 -14 -5 -22 -15 -23 -9 -1 -5 -5 9
-9 24 -8 24 -8 -7 -9 -31 -1 -37 9 -20 36 6 9 3 11 -9 6 -12 -4 -15 -3 -10 5
10 16 -6 15 -24 0 -8 -7 -6 -3 3 8 24 29 71 19 73 -14z m219 28 c3 -5 1 -10
-4 -10 -6 0 -11 5 -11 10 0 6 2 10 4 10 3 0 8 -4 11 -10z m2330 0 c3 -5 1 -10
-4 -10 -6 0 -11 5 -11 10 0 6 2 10 4 10 3 0 8 -4 11 -10z m-3862 -30 c-3 -11
-9 -18 -13 -15 -10 6 -27 -15 -32 -40 -2 -13 -12 -20 -31 -22 -15 -1 -26 1
-23 5 2 4 -7 8 -20 8 -13 1 -24 -2 -24 -7 0 -5 -9 -9 -20 -9 -11 0 -20 6 -20
14 0 23 28 45 50 39 11 -3 20 0 20 6 0 6 4 11 10 11 5 0 7 -7 4 -15 -4 -10 0
-15 11 -15 11 0 15 5 11 15 -6 18 20 34 45 28 13 -4 19 0 19 11 0 10 4 15 9
12 5 -3 7 -15 4 -26z m1177 15 c-7 -9 -15 -13 -17 -11 -7 7 7 26 19 26 6 0 6
-6 -2 -15z m1885 -2 c5 -15 4 -16 -6 -5 -19 18 -49 15 -49 -5 0 -9 -3 -14 -6
-10 -4 3 -4 13 -1 22 9 21 53 19 62 -2z m122 11 c-3 -3 -12 -4 -19 -1 -8 3 -5
6 6 6 11 1 17 -2 13 -5z m-5122 -13 c-12 -12 -65 -25 -65 -17 0 8 39 24 60 25
9 1 10 -2 5 -8z m605 5 c0 -3 -4 -8 -10 -11 -5 -3 -10 -1 -10 4 0 6 5 11 10
11 6 0 10 -2 10 -4z m612 -14 c-2 -7 -11 -11 -19 -8 -8 3 -21 6 -29 6 -8 0
-14 4 -14 9 0 4 15 8 34 7 23 -1 32 -5 28 -14z m586 0 c-10 -2 -18 -9 -18 -15
0 -7 -4 -7 -12 1 -16 16 7 33 31 24 14 -6 14 -7 -1 -10z m4356 -12 c-6 -6 -10
-2 -11 12 -2 16 1 18 10 9 7 -7 8 -14 1 -21z m79 11 c-2 -6 4 -11 13 -11 24 0
-1 -28 -29 -32 -14 -2 -23 -11 -25 -25 -3 -17 -10 -23 -28 -23 -13 0 -24 -4
-24 -10 0 -5 4 -10 9 -10 5 0 11 -9 14 -20 3 -11 1 -20 -4 -20 -5 0 -9 4 -9 9
0 5 -8 12 -17 15 -12 4 -19 17 -20 37 -1 18 0 29 4 25 3 -3 12 -1 20 6 7 6 16
8 20 5 8 -8 40 29 49 55 6 20 31 19 27 -1z m-4827 -5 c18 -18 19 -32 1 -17 -8
6 -16 9 -19 6 -3 -3 -11 1 -18 10 -10 12 -10 15 4 15 10 0 24 -6 32 -14z m339
4 c-3 -5 -13 -10 -21 -10 -8 0 -12 5 -9 10 3 6 13 10 21 10 8 0 12 -4 9 -10z
m554 -6 c-6 -7 -17 -10 -26 -7 -13 5 -13 3 -4 -15 8 -15 8 -23 -1 -28 -7 -4
-8 -3 -4 4 4 7 1 12 -9 12 -9 0 -13 5 -10 10 3 6 -3 10 -13 10 -11 0 -22 6
-25 13 -3 8 11 12 49 13 42 1 51 -2 43 -12z m221 11 c0 -8 -52 -26 -58 -20 -3
2 6 9 19 14 28 11 39 13 39 6z m131 -19 c-6 -8 -30 -16 -52 -18 -40 -4 -40 -3
-20 13 12 10 29 15 40 12 10 -3 22 0 26 7 4 6 9 9 12 6 3 -3 1 -12 -6 -20z
m4766 18 c-3 -3 -12 -4 -19 -1 -8 3 -5 6 6 6 11 1 17 -2 13 -5z m-7037 -8 c0
-3 -4 -8 -10 -11 -5 -3 -10 -1 -10 4 0 6 5 11 10 11 6 0 10 -2 10 -4z m770 -7
c0 -7 -8 -18 -17 -25 -17 -13 -17 -13 0 -14 9 0 17 -4 17 -10 0 -13 -10 -13
-50 1 l-32 12 31 13 c17 7 31 18 31 24 0 5 5 10 10 10 6 0 10 -5 10 -11z m85
1 c-6 -9 18 -14 55 -12 19 1 31 -18 25 -39 -7 -21 20 -45 30 -28 6 8 10 8 16
-2 4 -8 1 -18 -9 -26 -15 -11 -13 -12 16 -13 18 0 31 -4 28 -9 -3 -5 -19 -8
-36 -7 -16 1 -30 -1 -30 -5 0 -16 -34 -18 -51 -3 -36 33 -21 41 34 19 12 -5
17 -2 17 9 0 14 -18 21 -43 17 -5 -1 -6 3 -2 8 3 6 -4 15 -15 21 -17 9 -22 7
-30 -12 -10 -21 -10 -21 -5 5 3 15 1 27 -4 27 -10 0 -22 40 -15 52 3 4 10 8
15 8 6 0 7 -4 4 -10z m883 -15 c6 -5 -102 -65 -118 -65 -24 0 -70 21 -70 31 0
5 -8 6 -17 2 -14 -5 -16 -3 -6 7 7 8 19 10 30 5 45 -19 72 -15 103 15 30 29
47 30 78 5z m-1844 0 c3 -9 -1 -18 -10 -22 -20 -7 -38 18 -21 29 18 11 24 10
31 -7z m146 -6 c0 -5 -11 -9 -24 -9 -14 0 -31 -6 -38 -14 -12 -11 -17 -11 -34
2 -16 12 -16 14 -1 9 9 -4 17 -3 17 2 0 9 61 30 73 24 4 -2 7 -8 7 -14z m768
3 c2 -7 -2 -10 -12 -6 -9 3 -16 11 -16 16 0 13 23 5 28 -10z m415 -7 c15 -14
27 -29 27 -32 0 -3 -9 2 -20 12 -18 16 -20 16 -20 2 0 -9 -8 -21 -17 -26 -10
-6 -12 -11 -5 -11 27 0 10 -20 -17 -20 -24 0 -29 4 -28 20 1 14 8 20 25 20 14
0 21 4 16 11 -3 6 -19 9 -35 7 -23 -4 -29 -1 -29 13 0 36 65 39 103 4z m1582
14 c11 -17 -1 -21 -15 -4 -8 9 -8 15 -2 15 6 0 14 -5 17 -11z m2455 1 c0 -5
-11 -10 -24 -10 -14 0 -28 5 -31 10 -4 6 7 10 24 10 17 0 31 -4 31 -10z m1393
-9 c-2 -6 4 -11 12 -11 25 0 29 -1 42 -12 7 -6 10 -15 7 -20 -4 -6 -1 -14 6
-18 8 -5 8 -9 -4 -13 -9 -4 -15 -1 -13 6 1 6 -8 13 -20 15 -13 2 -23 8 -23 13
0 5 -12 14 -26 19 -22 9 -24 13 -14 25 14 17 36 14 33 -4z m111 -33 c6 -4 7
-10 4 -14 -10 -10 -40 4 -33 15 3 5 1 12 -4 16 -6 3 -7 13 -4 22 5 14 8 13 17
-8 6 -13 15 -27 20 -31z m586 38 c0 -8 -4 -18 -10 -21 -5 -3 -10 3 -10 14 0
12 5 21 10 21 6 0 10 -6 10 -14z m-7942 -5 c20 -2 14 -17 -14 -29 -20 -10 -28
-9 -40 3 -9 8 -21 12 -27 8 -7 -4 -7 0 1 9 8 10 24 15 40 13 15 -1 33 -3 40
-4z m2967 -2 c4 -6 13 -8 21 -5 8 3 14 1 14 -4 0 -5 8 -10 17 -12 15 -3 15 -4
1 -19 -11 -10 -13 -21 -7 -30 5 -8 9 -17 9 -21 0 -13 -58 -9 -66 3 -5 8 -10 6
-16 -5 -5 -9 -13 -14 -18 -11 -4 3 -20 1 -34 -5 -21 -8 -26 -7 -26 6 0 8 4 13
9 9 5 -3 16 4 25 16 9 14 19 18 28 13 11 -6 10 -5 0 9 -12 14 -16 15 -29 2 -8
-8 -17 -15 -21 -15 -14 1 -45 30 -39 37 4 4 12 2 18 -4 15 -15 39 -5 32 13 -7
18 14 18 50 0 25 -14 27 -14 17 4 -5 10 -10 21 -10 24 0 10 19 6 25 -5z m400
2 c3 -5 1 -12 -5 -16 -5 -3 -10 1 -10 9 0 18 6 21 15 7z m-3690 -11 c3 -5 1
-10 -4 -10 -6 0 -11 5 -11 10 0 6 2 10 4 10 3 0 8 -4 11 -10z m73 -26 c-14
-29 -58 -34 -58 -6 0 26 18 40 45 34 21 -4 22 -7 13 -28z m42 26 c0 -5 -2 -10
-4 -10 -3 0 -8 5 -11 10 -3 6 -1 10 4 10 6 0 11 -4 11 -10z m851 -13 c-10 -9
-11 -8 -5 6 3 10 9 15 12 12 3 -3 0 -11 -7 -18z m1759 -9 c0 -12 -10 -9 -26 6
-20 21 -17 28 6 14 11 -7 20 -16 20 -20z m3030 -10 c0 -4 -6 -5 -14 -2 -8 3
-14 15 -13 25 1 19 2 19 14 3 7 -10 13 -21 13 -26z m2210 32 c0 -5 -2 -10 -4
-10 -3 0 -8 5 -11 10 -3 6 -1 10 4 10 6 0 11 -4 11 -10z m170 0 c12 -7 10 -11
-10 -18 -14 -5 -27 -7 -30 -4 -3 2 1 7 8 9 6 3 10 9 6 14 -7 12 7 11 26 -1z
m-7720 -4 c0 -2 -8 -10 -17 -17 -16 -13 -17 -12 -4 4 13 16 21 21 21 13z m220
-16 c0 -5 -7 -7 -16 -3 -13 5 -15 2 -10 -15 6 -17 3 -19 -14 -15 -25 7 -25 11
2 33 22 18 38 18 38 0z m1378 -21 c-1 -16 -6 -29 -11 -29 -5 0 -7 8 -4 19 4
17 2 17 -21 5 -14 -7 -30 -10 -36 -7 -6 4 -6 8 2 11 7 2 12 10 12 17 0 16 18
23 43 17 12 -3 16 -13 15 -33z m1880 34 c-10 -2 -28 -2 -40 0 -13 2 -5 4 17 4
22 1 32 -1 23 -4z m4152 -3 c0 -5 -4 -10 -10 -10 -5 0 -10 -5 -10 -11 0 -5 4
-8 9 -5 5 3 11 0 14 -7 4 -10 -2 -13 -19 -9 -28 5 -28 6 -12 32 14 21 28 26
28 10z m313 -2 c9 2 17 -1 17 -6 0 -16 -35 -20 -48 -6 -16 17 -15 27 1 17 6
-4 20 -6 30 -5z m-8183 -2 c0 -11 -19 -15 -25 -6 -3 5 1 10 9 10 9 0 16 -2 16
-4z m544 -5 c3 -5 -6 -11 -21 -14 -26 -5 -26 -4 -8 9 22 17 22 17 29 5z m752
-6 c-3 -8 -2 -15 3 -15 5 0 11 -9 14 -20 3 -12 14 -20 25 -20 26 0 38 -18 17
-26 -9 -4 -26 4 -42 20 -17 17 -32 24 -45 21 -10 -4 -18 -1 -18 5 0 6 5 8 10
5 9 -5 12 1 9 21 -1 6 21 23 30 24 2 0 1 -7 -3 -15z m1284 5 c-13 -8 -13 -10
0 -10 10 0 11 -3 3 -11 -6 -6 -16 -8 -22 -5 -15 9 -2 36 18 36 14 0 14 -2 1
-10z m-1904 -9 c-3 -5 -15 -7 -26 -4 -28 7 -25 13 6 13 14 0 23 -4 20 -9z
m496 -3 c-9 -9 -15 -9 -24 0 -9 9 -7 12 12 12 19 0 21 -3 12 -12z m1314 6 c15
-4 21 -14 22 -35 0 -23 -6 -33 -30 -45 -36 -19 -32 -28 8 -15 45 15 125 20
117 8 -3 -5 0 -7 8 -5 8 3 27 -1 43 -9 28 -14 29 -14 23 6 -3 12 -1 21 4 21 5
0 9 8 9 18 0 14 2 15 10 2 5 -8 7 -22 4 -32 -2 -9 1 -20 7 -24 7 -4 9 -3 6 4
-9 13 2 42 15 42 5 0 6 -4 3 -10 -3 -5 -1 -19 5 -30 8 -14 8 -20 0 -20 -6 0
-9 -4 -6 -8 3 -5 -23 -5 -56 -1 -33 4 -64 13 -68 19 -4 7 -13 9 -20 5 -9 -5
-11 -4 -6 3 4 7 3 12 -3 12 -5 0 -13 -5 -16 -11 -4 -6 -13 -8 -20 -5 -8 3 -27
0 -43 -6 -24 -9 -34 -9 -47 2 -16 13 -15 16 10 36 19 15 26 28 21 39 -3 9 -12
15 -19 12 -17 -6 -41 20 -24 26 17 7 19 7 43 1z m802 -12 c2 -7 -1 -12 -6 -12
-18 0 -42 12 -42 21 0 13 43 4 48 -9z m-3242 -1 c-4 -5 0 -12 6 -15 7 -3 4 -5
-6 -3 -24 3 -34 27 -11 27 9 0 14 -4 11 -9z m334 -15 c-5 -15 -5 -27 2 -34 6
-6 -2 -11 -26 -14 -20 -2 -36 -1 -36 3 0 4 -16 9 -36 11 -26 2 -39 9 -44 24
-7 18 -5 20 24 16 17 -3 25 -7 17 -10 -10 -3 -11 -6 -1 -12 15 -9 69 7 88 27
19 19 23 16 12 -11z m2860 -6 c0 -13 -38 -18 -48 -8 -6 6 -8 16 -5 24 4 10 10
10 29 2 13 -6 24 -14 24 -18z m3050 20 c0 -5 -4 -10 -10 -10 -5 0 -10 5 -10
10 0 6 5 10 10 10 6 0 10 -4 10 -10z m80 7 c0 -2 -12 -14 -27 -28 -14 -13 -23
-18 -18 -10 6 10 2 11 -16 6 -21 -7 -22 -6 -11 8 7 8 21 13 32 10 11 -3 20 0
20 6 0 6 5 11 10 11 6 0 10 -1 10 -3z m60 -22 c0 -7 6 -16 13 -19 6 -3 1 -3
-13 1 -14 3 -33 6 -43 5 -17 -1 -16 1 3 18 24 20 40 18 40 -5z m164 -1 c10
-38 0 -41 -12 -5 -6 17 -7 31 -3 31 5 0 12 -12 15 -26z m1196 16 c0 -5 -4 -10
-10 -10 -5 0 -10 5 -10 10 0 6 5 10 10 10 6 0 10 -4 10 -10z m-7850 -16 c0 -2
-7 -4 -15 -4 -8 0 -15 4 -15 10 0 5 7 7 15 4 8 -4 15 -8 15 -10z m2892 -6 c-7
-7 -12 -8 -12 -2 0 14 12 26 19 19 2 -3 -1 -11 -7 -17z m45 -10 c-3 -7 -5 -2
-5 12 0 14 2 19 5 13 2 -7 2 -19 0 -25z m4663 17 c7 -9 8 -15 2 -15 -5 0 -12
7 -16 15 -3 8 -4 15 -2 15 2 0 9 -7 16 -15z m200 -22 c0 -5 -11 -10 -25 -11
-14 -1 -25 3 -25 9 0 5 5 7 12 3 7 -4 8 -3 4 4 -12 20 4 34 20 18 8 -8 14 -18
14 -23z m500 27 c0 -5 -8 -10 -17 -10 -15 0 -16 2 -3 10 19 12 20 12 20 0z
m-8420 -20 c-12 -23 -40 -27 -40 -5 0 9 6 12 15 9 8 -4 15 -1 15 5 0 6 5 11
10 11 7 0 7 -6 0 -20z m210 -1 c11 -19 10 -20 -10 -9 -11 6 -18 15 -15 21 9
13 13 11 25 -12z m504 10 c-3 -5 -16 -9 -30 -9 -33 0 -24 15 10 16 14 1 23 -2
20 -7z m91 -2 c3 -4 3 -5 -1 -3 -3 2 -22 0 -42 -5 -31 -6 -34 -6 -20 5 18 13
54 15 63 3z m918 -7 c-3 -11 -9 -17 -14 -15 -10 7 -1 35 11 35 5 0 6 -9 3 -20z
m327 10 c0 -5 -2 -10 -4 -10 -3 0 -8 5 -11 10 -3 6 -1 10 4 10 6 0 11 -4 11
-10z m711 -4 c5 3 9 0 9 -6 0 -14 -49 -5 -65 11 -6 6 1 6 18 0 16 -6 33 -9 38
-5z m169 4 c0 -5 -5 -10 -11 -10 -5 0 -7 5 -4 10 3 6 8 10 11 10 2 0 4 -4 4
-10z m3527 -6 c2 -5 -8 -10 -21 -10 -20 -2 -22 1 -13 12 13 14 29 14 34 -2z
m1238 6 c8 -13 -5 -13 -25 0 -13 8 -13 10 2 10 9 0 20 -4 23 -10z m505 -10 c0
-5 -2 -10 -4 -10 -3 0 -8 5 -11 10 -3 6 -1 10 4 10 6 0 11 -4 11 -10z m425 0
c-3 -5 -11 -10 -16 -10 -6 0 -7 5 -4 10 3 6 11 10 16 10 6 0 7 -4 4 -10z
m-8005 -10 c0 -5 15 -11 33 -11 l32 -1 -30 -7 c-16 -4 -40 -5 -52 -3 -28 5
-30 32 -3 32 11 0 20 -4 20 -10z m1070 -5 c0 -8 -4 -15 -10 -15 -5 0 -7 7 -4
15 4 8 8 15 10 15 2 0 4 -7 4 -15z m6354 0 c3 -8 1 -15 -3 -15 -5 0 -11 7 -15
15 -3 8 -1 15 3 15 5 0 11 -7 15 -15z m53 -19 c-9 -9 -22 -16 -29 -15 -10 0
-10 2 0 6 6 2 12 9 12 14 0 6 -4 7 -10 4 -5 -3 -10 -2 -10 4 0 12 32 20 44 10
5 -4 2 -15 -7 -23z m363 24 c0 -5 -5 -10 -11 -10 -5 0 -7 5 -4 10 3 6 8 10 11
10 2 0 4 -4 4 -10z m103 -10 c-4 -16 -9 -18 -24 -9 -23 12 -16 29 11 29 13 0
17 -5 13 -20z m-8613 1 c0 -3 -11 -11 -24 -17 -22 -10 -23 -10 -14 6 10 16 38
24 38 11z m114 0 c3 -4 3 -11 0 -14 -8 -8 -34 3 -34 14 0 11 27 12 34 0z
m1946 -7 c0 -8 -4 -12 -10 -9 -5 3 -10 10 -10 16 0 5 5 9 10 9 6 0 10 -7 10
-16z m406 -26 c-4 -21 -2 -28 7 -25 6 2 11 10 10 16 -3 11 9 15 40 11 10 -1
26 4 35 12 15 11 15 11 5 -3 -7 -9 -9 -20 -5 -24 4 -5 2 -5 -5 -1 -6 3 -14 2
-18 -4 -3 -5 -1 -10 5 -10 6 0 8 -5 5 -10 -8 -13 -95 -6 -126 11 -13 7 -35 12
-48 10 -14 -2 -21 1 -17 8 4 5 13 8 20 5 9 -3 17 4 21 17 7 22 8 22 23 3 14
-19 14 -19 10 2 -5 17 -1 20 19 16 22 -4 24 -9 19 -34z m5439 32 c3 -5 2 -10
-4 -10 -5 0 -13 5 -16 10 -3 6 -2 10 4 10 5 0 13 -4 16 -10z m-6415 -10 c0 -5
-5 -10 -11 -10 -5 0 -7 5 -4 10 3 6 8 10 11 10 2 0 4 -4 4 -10z m40 1 c0 -6
-4 -12 -8 -15 -5 -3 -9 1 -9 9 0 8 4 15 9 15 4 0 8 -4 8 -9z m1010 -1 c0 -5
-5 -10 -11 -10 -5 0 -7 5 -4 10 3 6 8 10 11 10 2 0 4 -4 4 -10z m4175 0 c3 -5
1 -10 -4 -10 -6 0 -11 5 -11 10 0 6 2 10 4 10 3 0 8 -4 11 -10z m1325 0 c0 -5
-2 -10 -4 -10 -3 0 -8 5 -11 10 -3 6 -1 10 4 10 6 0 11 -4 11 -10z m781 -12
c11 -21 11 -22 -4 -9 -10 7 -17 17 -17 22 0 15 9 10 21 -13z m-8302 -9 c-20
-20 -59 -19 -59 3 0 5 6 8 13 5 6 -2 21 -1 32 4 33 13 36 10 14 -12z m1258 5
c-3 -3 -12 -4 -19 -1 -8 3 -5 6 6 6 11 1 17 -2 13 -5z m1233 -14 c0 -5 -7 -7
-15 -4 -8 4 -15 8 -15 10 0 2 7 4 15 4 8 0 15 -4 15 -10z m5080 0 c0 -5 -2
-10 -4 -10 -3 0 -8 5 -11 10 -3 6 -1 10 4 10 6 0 11 -4 11 -10z m-7655 -20
c-10 -11 -23 -20 -28 -20 -6 0 0 9 13 20 13 11 25 20 28 20 3 0 -3 -9 -13 -20z"/>
<path d="M3792 2634 c10 -10 20 -15 24 -12 3 4 -5 12 -18 18 -22 12 -22 12 -6
-6z"/>
<path d="M3827 2594 c3 -8 11 -14 19 -14 21 0 17 17 -5 23 -14 3 -18 1 -14 -9z"/>
<path d="M5935 2540 c3 -6 -1 -10 -9 -10 -10 0 -13 -6 -10 -15 9 -23 43 -19
41 5 -1 11 -7 22 -15 25 -7 2 -10 0 -7 -5z"/>
<path d="M4820 2525 c0 -8 7 -15 15 -15 9 0 12 6 9 15 -4 8 -10 15 -15 15 -5
0 -9 -7 -9 -15z"/>
<path d="M1140 2484 c0 -5 7 -18 15 -28 8 -11 15 -16 15 -10 0 5 -7 18 -15 28
-8 11 -15 16 -15 10z"/>
<path d="M4895 2450 c-8 -13 5 -13 25 0 13 8 13 10 -2 10 -9 0 -20 -4 -23 -10z"/>
<path d="M3405 2400 c-3 -5 -1 -10 4 -10 6 0 11 5 11 10 0 6 -2 10 -4 10 -3 0
-8 -4 -11 -10z"/>
<path d="M4290 2350 c0 -5 5 -10 11 -10 5 0 7 5 4 10 -3 6 -8 10 -11 10 -2 0
-4 -4 -4 -10z"/>
</g>
</svg>
